<?xml version="1.0" encoding="UTF-8" standalone="no"?>
<!DOCTYPE svg PUBLIC "-//W3C//DTD SVG 1.1//EN" "http://www.w3.org/Graphics/SVG/1.1/DTD/svg11.dtd">
<svg xmlns="http://www.w3.org/2000/svg" version="1.1" viewBox="0.00 0.00 1024.00 1024.00">
<rect fill="#000000" x="-6.89" y="-34.80" transform="translate(512.91,78.80) rotate(0.1)" width="13.78" height="69.60" rx="6.74"/>
<rect fill="#000000" x="-5.32" y="-24.99" transform="translate(456.72,99.75) rotate(-15.9)" width="10.64" height="49.98" rx="5.16"/>
<rect fill="#000000" x="-5.24" y="-24.63" transform="translate(568.86,99.62) rotate(16.1)" width="10.48" height="49.26" rx="5.04"/>
<rect fill="#000000" x="-5.42" y="-31.43" transform="translate(409.42,111.00) rotate(-32.0)" width="10.84" height="62.86" rx="5.33"/>
<path fill="#000000" d="
  M 597.97 130.89
  L 598.67 129.21
  L 600.06 127.25
  L 600.92 126.08
  L 625.16 87.72
  L 626.17 86.30
  L 627.26 85.20
  L 628.41 84.43
  L 629.64 83.99
  L 629.64 83.99
  L 629.64 83.99
  L 631.32 83.91
  L 633.13 84.37
  L 634.55 85.15
  L 635.57 86.20
  L 635.57 86.20
  L 636.14 87.34
  L 636.40 88.84
  L 636.40 88.84
  L 636.14 90.44
  L 635.32 92.04
  L 630.43 99.61
  L 617.91 119.65
  L 608.21 134.62
  L 607.01 136.19
  L 605.81 137.32
  L 604.57 138.06
  L 603.21 138.41
  L 601.79 138.32
  L 600.26 137.74
  L 598.85 136.66
  L 598.85 136.66
  L 598.18 135.75
  L 597.69 134.67
  L 597.39 133.42
  L 597.27 132.00
  L 597.28 131.91
  L 597.53 131.55
  L 597.78 131.31
  L 597.97 130.89
  Z"
/>
<rect fill="#000000" x="-7.40" y="-37.30" transform="translate(360.04,133.91) rotate(-44.2)" width="14.80" height="74.60" rx="7.27"/>
<rect fill="#000000" x="-7.43" y="-37.21" transform="translate(665.62,134.11) rotate(44.4)" width="14.86" height="74.42" rx="7.30"/>
<circle fill="#000000" cx="513.08" cy="134.54" r="5.43"/>
<path fill="#000000" d="
  M 797.01 847.30
  L 789.48 850.39
  L 782.07 853.72
  L 771.40 859.03
  L 766.27 861.49
  L 756.54 865.99
  L 734.00 876.56
  L 723.90 880.83
  L 713.96 885.44
  L 713.96 885.44
  L 703.19 890.91
  L 696.02 894.20
  L 681.54 900.46
  L 667.45 907.38
  L 649.00 916.33
  L 647.95 916.69
  L 644.00 918.20
  L 640.12 919.94
  L 636.32 921.89
  L 632.60 924.06
  L 626.47 926.54
  L 612.24 932.90
  L 581.50 947.02
  L 574.12 950.52
  L 562.96 956.13
  L 519.73 976.28
  L 516.85 976.93
  L 513.97 977.17
  L 513.97 977.17
  L 511.74 977.07
  L 509.50 976.73
  L 509.43 976.66
  L 509.43 976.66
  L 508.19 975.84
  L 506.50 975.46
  L 463.69 955.05
  L 461.68 953.75
  L 458.72 952.25
  L 277.20 867.57
  L 258.47 859.45
  L 251.82 856.11
  L 210.85 836.72
  L 204.12 833.61
  L 193.36 828.63
  L 185.66 824.81
  L 181.36 822.95
  L 176.43 821.54
  L 175.67 821.34
  L 174.73 820.81
  L 175.23 820.87
  L 175.42 820.77
  L 175.28 820.60
  L 173.82 819.81
  L 172.30 819.28
  L 172.30 819.28
  L 171.49 819.10
  L 168.57 818.03
  L 166.00 816.67
  L 163.78 815.03
  L 161.91 813.10
  L 161.91 813.10
  L 160.29 810.71
  L 159.07 807.98
  L 158.26 804.92
  L 157.85 801.53
  L 158.03 798.90
  L 158.80 796.53
  L 160.21 794.23
  L 162.17 792.11
  L 164.72 790.13
  L 167.88 788.25
  L 171.56 786.54
  L 175.78 784.98
  L 180.72 783.51
  L 180.96 783.38
  L 181.13 782.85
  L 180.76 782.43
  L 179.20 781.89
  L 175.98 780.72
  L 173.51 779.57
  L 172.91 779.23
  L 169.45 777.37
  L 165.07 774.97
  L 162.26 773.00
  L 160.15 770.87
  L 158.70 768.49
  L 158.20 767.10
  L 157.87 765.57
  L 157.80 762.27
  L 158.27 759.56
  L 159.18 757.06
  L 159.18 757.06
  L 160.13 755.36
  L 161.32 753.77
  L 162.75 752.29
  L 164.42 750.92
  L 164.63 750.61
  L 164.37 750.34
  L 162.52 749.16
  L 161.07 747.68
  L 161.07 747.68
  L 160.36 746.59
  L 159.18 744.06
  L 158.40 741.49
  L 158.03 738.90
  L 158.06 736.33
  L 158.44 734.04
  L 159.15 731.79
  L 160.20 729.60
  L 161.58 727.48
  L 163.93 724.82
  L 166.64 722.71
  L 166.64 722.71
  L 169.51 721.21
  L 172.68 720.20
  L 176.17 719.68
  L 179.97 719.64
  L 180.48 719.51
  L 180.84 719.13
  L 181.07 718.42
  L 181.01 717.84
  L 181.01 717.84
  L 181.01 717.84
  L 180.65 717.37
  L 179.99 717.03
  L 176.75 715.94
  L 169.68 713.38
  L 167.31 712.21
  L 165.38 710.96
  L 162.89 708.66
  L 160.85 705.89
  L 159.28 702.70
  L 158.29 699.29
  L 157.94 695.95
  L 158.22 692.65
  L 159.15 689.57
  L 160.64 686.91
  L 161.75 685.55
  L 163.06 684.31
  L 164.49 683.30
  L 166.30 682.33
  L 171.10 680.48
  L 179.71 677.84
  L 180.29 677.56
  L 180.76 677.11
  L 181.06 676.54
  L 181.16 675.90
  L 181.15 667.30
  L 180.87 666.40
  L 180.12 665.82
  L 178.10 665.08
  L 170.88 662.28
  L 166.15 659.82
  L 164.17 658.43
  L 162.54 656.99
  L 161.16 655.41
  L 160.00 653.65
  L 158.96 651.32
  L 158.28 648.67
  L 158.01 645.82
  L 158.14 642.61
  L 158.87 638.92
  L 159.50 637.18
  L 160.30 635.57
  L 161.71 633.49
  L 163.38 631.67
  L 165.35 630.04
  L 167.70 628.54
  L 170.30 627.26
  L 173.24 626.15
  L 176.54 625.22
  L 180.13 624.47
  L 180.65 624.21
  L 180.85 623.65
  L 181.13 617.40
  L 181.01 616.90
  L 180.56 616.58
  L 177.16 615.56
  L 170.97 613.58
  L 166.75 611.69
  L 164.90 610.57
  L 163.35 609.40
  L 161.96 608.09
  L 160.73 606.59
  L 159.23 604.06
  L 158.28 601.37
  L 157.86 598.48
  L 157.95 595.43
  L 158.58 592.42
  L 159.66 589.76
  L 161.20 587.36
  L 163.14 585.38
  L 165.32 583.95
  L 167.04 583.24
  L 170.23 582.68
  L 175.06 582.55
  L 187.10 582.40
  L 192.41 582.07
  L 197.25 581.57
  L 206.48 580.25
  L 216.19 578.57
  L 226.38 576.54
  L 237.04 574.16
  L 246.73 571.73
  L 256.35 568.98
  L 274.03 563.32
  L 291.95 556.97
  L 310.10 549.94
  L 328.49 542.21
  L 352.94 531.25
  L 377.16 519.80
  L 400.16 508.36
  L 422.94 496.46
  L 428.99 492.91
  L 434.82 488.87
  L 435.35 487.99
  L 435.12 486.98
  L 433.31 484.08
  L 431.80 481.10
  L 430.59 478.05
  L 429.69 474.93
  L 429.69 474.93
  L 429.05 471.45
  L 428.77 467.89
  L 428.86 464.24
  L 429.30 460.50
  L 429.78 459.23
  L 429.99 458.86
  L 430.11 458.34
  L 430.17 454.62
  L 429.93 450.98
  L 429.39 447.43
  L 428.55 443.97
  L 428.55 443.97
  L 426.68 438.83
  L 424.10 433.89
  L 421.13 429.36
  L 417.65 424.70
  L 413.51 419.69
  L 407.63 413.03
  L 401.37 405.93
  L 396.97 400.56
  L 392.61 394.73
  L 388.54 388.82
  L 384.76 382.83
  L 381.26 376.76
  L 378.04 370.62
  L 375.11 364.40
  L 372.47 358.10
  L 370.11 351.73
  L 367.93 344.41
  L 366.22 336.47
  L 364.98 327.92
  L 364.21 318.74
  L 363.93 309.90
  L 364.08 301.23
  L 364.67 292.73
  L 365.69 284.41
  L 367.15 276.25
  L 369.04 268.27
  L 371.37 260.46
  L 374.13 252.82
  L 374.13 252.82
  L 374.13 252.82
  L 374.13 252.82
  L 374.13 252.82
  L 374.13 252.82
  L 377.05 245.96
  L 380.33 239.24
  L 383.98 232.66
  L 388.00 226.23
  L 392.38 219.95
  L 397.13 213.81
  L 402.25 207.81
  L 407.73 201.96
  L 414.18 195.79
  L 421.00 190.08
  L 421.00 190.08
  L 429.39 184.01
  L 438.26 178.56
  L 443.74 175.60
  L 449.30 172.85
  L 454.94 170.31
  L 460.66 167.98
  L 460.66 167.98
  L 466.44 165.87
  L 472.30 163.96
  L 478.23 162.26
  L 484.25 160.77
  L 488.68 159.87
  L 493.39 159.13
  L 503.26 158.22
  L 513.95 158.02
  L 525.62 158.53
  L 530.68 158.99
  L 535.63 159.67
  L 540.46 160.54
  L 545.19 161.63
  L 551.60 163.39
  L 557.91 165.40
  L 564.11 167.66
  L 570.20 170.16
  L 570.20 170.16
  L 570.20 170.16
  L 570.20 170.16
  L 577.31 173.47
  L 584.28 177.12
  L 591.09 181.13
  L 597.75 185.48
  L 600.79 187.87
  L 605.41 191.42
  L 608.57 193.70
  L 616.20 200.64
  L 616.20 200.64
  L 621.88 206.39
  L 627.29 212.43
  L 627.54 212.80
  L 627.72 213.31
  L 628.01 213.97
  L 628.69 214.43
  L 629.31 214.88
  L 633.56 220.68
  L 637.55 226.65
  L 637.55 226.65
  L 640.69 231.81
  L 643.66 237.08
  L 646.43 242.47
  L 649.01 247.99
  L 651.41 253.62
  L 653.62 259.37
  L 655.64 265.25
  L 657.47 271.24
  L 658.71 275.94
  L 659.76 280.80
  L 660.59 285.70
  L 661.24 290.78
  L 662.01 301.69
  L 662.12 314.51
  L 661.59 324.89
  L 661.05 329.75
  L 660.31 334.39
  L 659.62 337.86
  L 658.41 343.07
  L 657.00 348.18
  L 655.38 353.29
  L 653.56 358.32
  L 651.49 363.39
  L 649.24 368.36
  L 646.76 373.35
  L 644.09 378.25
  L 638.08 388.03
  L 631.22 397.69
  L 623.43 407.36
  L 614.74 416.99
  L 610.83 421.36
  L 607.29 425.87
  L 604.22 430.36
  L 601.62 434.88
  L 599.52 439.32
  L 597.93 443.71
  L 596.85 447.98
  L 596.29 452.12
  L 596.37 455.82
  L 597.00 461.81
  L 597.41 467.78
  L 597.31 470.39
  L 597.00 472.75
  L 596.16 476.15
  L 594.81 479.88
  L 592.95 483.93
  L 590.58 488.30
  L 590.48 488.73
  L 590.76 489.11
  L 594.44 491.59
  L 598.51 494.02
  L 609.62 499.80
  L 615.34 502.67
  L 625.90 507.88
  L 667.97 527.56
  L 692.52 538.71
  L 716.70 548.94
  L 739.01 557.74
  L 750.05 561.79
  L 761.53 565.75
  L 773.44 569.63
  L 785.80 573.43
  L 795.37 576.07
  L 805.92 578.57
  L 817.45 580.92
  L 829.96 583.13
  L 834.82 583.75
  L 839.97 584.06
  L 845.56 584.09
  L 853.29 583.87
  L 856.80 584.03
  L 859.54 584.80
  L 862.13 586.32
  L 864.22 588.26
  L 865.82 590.66
  L 866.92 593.49
  L 867.52 596.37
  L 867.69 598.99
  L 867.44 601.50
  L 866.80 603.76
  L 865.77 605.84
  L 864.27 607.86
  L 862.43 609.65
  L 860.14 611.34
  L 857.43 612.90
  L 854.28 614.36
  L 850.63 615.77
  L 845.70 617.41
  L 844.81 617.99
  L 844.51 619.02
  L 844.48 625.45
  L 844.59 625.77
  L 844.87 625.96
  L 852.92 628.10
  L 856.27 629.24
  L 859.18 630.73
  L 861.65 632.55
  L 863.68 634.72
  L 863.68 634.72
  L 863.68 634.72
  L 865.19 637.03
  L 866.31 639.64
  L 867.06 642.54
  L 867.43 645.74
  L 867.44 647.80
  L 867.25 649.73
  L 866.84 651.61
  L 866.24 653.35
  L 865.14 655.51
  L 863.75 657.45
  L 862.03 659.27
  L 859.91 661.03
  L 857.51 662.65
  L 854.73 664.22
  L 846.94 667.78
  L 845.63 668.34
  L 844.62 669.18
  L 844.24 670.44
  L 844.23 678.29
  L 844.40 678.84
  L 844.86 679.18
  L 847.71 680.11
  L 854.68 682.53
  L 857.17 683.63
  L 859.34 684.80
  L 861.30 686.11
  L 862.91 687.49
  L 864.28 689.01
  L 865.43 690.73
  L 866.66 693.61
  L 867.27 696.81
  L 867.32 699.75
  L 866.93 702.56
  L 866.19 705.02
  L 865.13 707.33
  L 863.71 709.56
  L 861.99 711.59
  L 859.98 713.46
  L 857.72 715.09
  L 855.26 716.47
  L 852.62 717.58
  L 848.69 719.12
  L 845.28 720.76
  L 844.92 721.12
  L 845.34 721.41
  L 853.43 724.08
  L 859.66 726.56
  L 862.16 728.00
  L 864.18 729.86
  L 864.18 729.86
  L 864.18 729.86
  L 865.15 731.18
  L 865.95 732.64
  L 866.57 734.26
  L 867.02 736.02
  L 867.32 739.20
  L 867.32 739.20
  L 866.99 742.21
  L 866.09 745.21
  L 864.59 748.22
  L 862.51 751.21
  L 862.28 751.82
  L 862.58 752.38
  L 864.31 754.32
  L 865.70 756.45
  L 866.77 758.80
  L 867.44 761.23
  L 867.69 763.64
  L 867.52 766.00
  L 866.96 768.19
  L 865.98 770.24
  L 864.69 771.98
  L 863.21 773.34
  L 861.14 774.80
  L 855.17 778.00
  L 844.78 782.61
  L 844.49 782.81
  L 844.29 783.17
  L 844.28 783.58
  L 844.48 783.95
  L 844.82 784.18
  L 851.59 786.73
  L 858.00 789.45
  L 860.98 791.20
  L 862.23 792.27
  L 863.31 793.46
  L 863.31 793.46
  L 863.31 793.46
  L 863.31 793.46
  L 863.31 793.46
  L 864.25 794.83
  L 865.01 796.32
  L 865.61 797.95
  L 866.03 799.72
  L 866.48 802.94
  L 866.55 805.70
  L 866.25 808.17
  L 865.55 810.47
  L 864.74 812.09
  L 863.67 813.65
  L 862.32 815.17
  L 860.66 816.65
  L 857.19 819.18
  L 854.25 820.70
  L 835.94 827.90
  L 829.57 830.67
  L 823.68 833.48
  L 815.40 837.88
  L 811.43 839.96
  L 806.16 842.46
  L 801.51 844.76
  L 797.01 847.30
  Z
  M 453.81 472.34
  L 453.47 471.51
  L 453.00 469.77
  L 452.80 467.81
  L 452.86 465.56
  L 453.21 462.48
  L 453.67 457.75
  L 453.72 453.66
  L 453.56 449.67
  L 453.20 445.76
  L 452.64 441.94
  L 451.87 438.21
  L 450.89 434.58
  L 449.71 431.03
  L 448.32 427.57
  L 448.32 427.57
  L 448.32 427.57
  L 446.54 423.82
  L 444.50 420.19
  L 442.52 417.24
  L 439.77 413.66
  L 431.96 404.66
  L 417.73 389.30
  L 411.48 382.31
  L 406.05 375.19
  L 401.36 367.83
  L 397.33 360.11
  L 395.36 355.56
  L 393.59 350.87
  L 392.05 346.04
  L 390.73 341.05
  L 389.09 333.20
  L 387.93 325.40
  L 387.23 317.55
  L 387.02 309.77
  L 387.27 302.03
  L 387.99 294.38
  L 389.18 286.74
  L 390.84 279.24
  L 392.37 273.76
  L 394.14 268.37
  L 396.15 263.06
  L 398.40 257.85
  L 400.89 252.74
  L 403.61 247.73
  L 406.57 242.83
  L 409.75 238.05
  L 413.15 233.39
  L 416.77 228.86
  L 420.61 224.46
  L 424.66 220.20
  L 428.88 216.12
  L 433.31 212.19
  L 437.94 208.40
  L 442.77 204.78
  L 450.11 199.84
  L 457.65 195.42
  L 465.39 191.53
  L 473.34 188.17
  L 473.34 188.17
  L 479.36 186.02
  L 485.49 184.16
  L 491.74 182.58
  L 498.09 181.30
  L 503.07 180.53
  L 508.04 179.98
  L 513.02 179.64
  L 517.99 179.53
  L 527.82 179.89
  L 537.55 180.98
  L 537.55 180.98
  L 537.55 180.98
  L 543.98 182.11
  L 550.37 183.57
  L 556.70 185.36
  L 562.99 187.47
  L 564.06 187.57
  L 564.18 187.51
  L 564.32 187.19
  L 564.13 186.91
  L 558.95 184.28
  L 553.69 181.96
  L 548.34 179.95
  L 542.90 178.23
  L 537.14 176.77
  L 531.27 175.65
  L 525.32 174.85
  L 519.27 174.39
  L 510.31 174.21
  L 501.83 174.54
  L 493.80 175.39
  L 486.25 176.75
  L 481.25 177.97
  L 476.26 179.42
  L 471.20 181.11
  L 466.19 183.02
  L 461.22 185.15
  L 456.31 187.47
  L 451.49 189.99
  L 446.76 192.70
  L 442.15 195.58
  L 437.65 198.63
  L 433.28 201.85
  L 429.06 205.22
  L 425.00 208.73
  L 421.10 212.38
  L 417.45 216.10
  L 413.98 219.94
  L 409.54 225.31
  L 405.42 230.78
  L 401.62 236.36
  L 398.15 242.05
  L 395.00 247.84
  L 392.16 253.74
  L 389.65 259.74
  L 387.46 265.85
  L 387.46 265.85
  L 387.46 265.85
  L 387.46 265.85
  L 385.87 271.08
  L 384.50 276.37
  L 383.36 281.74
  L 382.45 287.19
  L 381.77 292.71
  L 381.31 298.30
  L 381.08 303.97
  L 381.08 309.72
  L 381.28 314.41
  L 381.68 319.04
  L 382.30 323.72
  L 383.13 328.33
  L 384.18 333.06
  L 385.43 337.72
  L 388.57 347.11
  L 392.59 356.62
  L 397.47 366.20
  L 403.29 376.02
  L 410.01 386.02
  L 415.65 393.31
  L 424.30 403.36
  L 432.86 413.33
  L 436.54 418.28
  L 439.70 423.40
  L 442.33 428.69
  L 444.42 434.16
  L 444.42 434.16
  L 444.42 434.16
  L 444.42 434.16
  L 445.91 439.43
  L 446.93 444.85
  L 447.50 450.42
  L 447.60 456.15
  L 446.89 463.29
  L 446.74 466.63
  L 446.98 469.81
  L 447.60 472.81
  L 448.61 475.65
  L 448.61 475.65
  L 448.61 475.65
  L 448.61 475.65
  L 449.54 477.52
  L 450.65 479.31
  L 453.42 482.64
  L 455.52 484.53
  L 457.83 486.18
  L 460.42 487.66
  L 463.17 488.91
  L 466.23 489.99
  L 469.39 490.81
  L 472.74 491.40
  L 476.10 491.74
  L 476.19 491.71
  L 476.15 491.45
  L 472.12 490.03
  L 468.41 488.25
  L 465.02 486.12
  L 461.95 483.64
  L 461.95 483.64
  L 459.56 481.21
  L 457.40 478.52
  L 455.48 475.56
  L 453.81 472.34
  Z
  M 514.8345 209.1006
  L 516.3412 208.6919
  L 517.7383 207.9834
  L 518.9722 207.0022
  L 519.9953 205.7862
  L 520.7685 204.3820
  L 521.2620 202.8436
  L 521.4567 201.2302
  L 521.3454 199.6036
  L 520.9321 198.0265
  L 520.2329 196.5595
  L 519.2745 195.2588
  L 518.0939 194.1746
  L 516.7363 193.3484
  L 515.2539 192.8121
  L 513.7038 192.5862
  L 512.1455 192.6794
  L 510.6388 193.0881
  L 509.2417 193.7966
  L 508.0078 194.7778
  L 506.9847 195.9938
  L 506.2115 197.3980
  L 505.7180 198.9364
  L 505.5233 200.5498
  L 505.6346 202.1764
  L 506.0479 203.7535
  L 506.7471 205.2205
  L 507.7055 206.5212
  L 508.8861 207.6054
  L 510.2437 208.4316
  L 511.7261 208.9679
  L 513.2762 209.1938
  L 514.8345 209.1006
  Z
  M 431.56 227.31
  L 426.20 232.80
  L 421.27 238.69
  L 416.69 245.05
  L 412.58 251.72
  L 408.89 258.79
  L 405.72 266.08
  L 403.10 273.52
  L 401.04 281.06
  L 400.12 286.24
  L 399.98 288.55
  L 400.05 290.56
  L 400.32 292.33
  L 400.82 293.97
  L 401.51 295.36
  L 402.46 296.59
  L 403.85 297.76
  L 405.62 298.67
  L 407.67 299.26
  L 410.12 299.55
  L 412.60 299.40
  L 414.83 298.62
  L 416.51 297.43
  L 418.00 295.66
  L 419.22 293.41
  L 420.26 290.59
  L 422.75 283.00
  L 425.39 276.10
  L 428.16 269.87
  L 431.07 264.32
  L 435.10 257.80
  L 439.51 251.69
  L 444.29 245.96
  L 449.46 240.64
  L 449.46 240.64
  L 449.46 240.64
  L 449.46 240.64
  L 449.46 240.64
  L 453.22 237.22
  L 457.16 233.98
  L 461.27 230.93
  L 465.57 228.07
  L 470.04 225.39
  L 474.69 222.90
  L 479.52 220.60
  L 484.53 218.48
  L 488.07 216.94
  L 490.65 215.43
  L 492.56 213.80
  L 493.87 211.99
  L 494.44 210.70
  L 494.82 209.26
  L 494.99 206.07
  L 494.69 204.12
  L 494.03 202.36
  L 493.32 201.18
  L 492.41 200.11
  L 490.15 198.24
  L 487.76 197.09
  L 485.75 196.65
  L 483.63 196.60
  L 481.36 196.91
  L 478.74 197.63
  L 472.62 199.89
  L 466.52 202.58
  L 460.58 205.63
  L 454.68 209.12
  L 448.86 213.01
  L 443.09 217.32
  L 437.30 222.10
  L 431.56 227.31
  Z
  M 512.87 331.64
  L 511.31 322.23
  L 510.36 319.00
  L 509.63 317.59
  L 508.74 316.31
  L 508.74 316.31
  L 508.74 316.31
  L 508.74 316.31
  L 507.69 315.17
  L 506.47 314.17
  L 503.56 312.55
  L 499.95 311.32
  L 496.71 310.78
  L 493.82 310.94
  L 491.28 311.80
  L 491.28 311.80
  L 491.28 311.80
  L 491.28 311.80
  L 489.72 312.81
  L 488.33 314.18
  L 487.12 315.88
  L 486.08 317.93
  L 485.25 320.45
  L 484.68 323.45
  L 484.34 326.98
  L 484.20 331.70
  L 484.09 332.01
  L 483.58 332.19
  L 483.19 331.82
  L 482.41 328.63
  L 480.52 321.48
  L 479.64 319.00
  L 478.71 316.92
  L 477.47 314.76
  L 476.08 312.79
  L 474.52 311.01
  L 472.81 309.42
  L 472.81 309.42
  L 469.86 307.34
  L 466.53 305.71
  L 463.76 304.81
  L 460.98 304.31
  L 458.13 304.18
  L 455.34 304.45
  L 452.71 305.09
  L 450.22 306.10
  L 447.92 307.47
  L 445.84 309.18
  L 444.33 310.82
  L 443.03 312.69
  L 441.98 314.67
  L 441.15 316.85
  L 440.41 320.04
  L 440.20 323.22
  L 440.20 323.22
  L 440.20 323.22
  L 440.55 326.61
  L 441.51 330.00
  L 443.35 334.20
  L 445.57 337.93
  L 448.17 341.18
  L 451.15 343.96
  L 451.15 343.96
  L 454.63 346.33
  L 458.51 348.21
  L 462.80 349.57
  L 467.49 350.43
  L 467.95 350.63
  L 468.23 351.05
  L 484.37 405.67
  L 484.87 406.27
  L 485.65 406.29
  L 485.65 406.29
  L 485.74 406.25
  L 491.72 403.11
  L 492.40 402.36
  L 492.45 401.35
  L 476.82 350.30
  L 476.77 349.76
  L 476.94 349.25
  L 477.30 348.85
  L 477.79 348.63
  L 477.79 348.63
  L 477.88 348.61
  L 479.93 348.14
  L 481.84 347.38
  L 483.96 346.08
  L 484.39 345.92
  L 484.80 346.07
  L 488.25 348.21
  L 491.70 349.76
  L 495.17 350.70
  L 498.64 351.04
  L 498.64 351.04
  L 498.64 351.04
  L 502.14 350.78
  L 505.64 349.91
  L 509.16 348.44
  L 512.68 346.36
  L 513.14 346.20
  L 513.60 346.36
  L 516.47 348.12
  L 519.50 349.50
  L 522.66 350.49
  L 525.88 351.06
  L 528.98 351.18
  L 532.04 350.87
  L 534.92 350.15
  L 537.69 348.98
  L 539.91 347.65
  L 541.99 345.98
  L 542.49 345.75
  L 542.99 345.95
  L 545.62 347.67
  L 545.62 347.67
  L 547.42 348.43
  L 549.33 348.95
  L 549.73 349.23
  L 549.81 349.71
  L 549.81 349.71
  L 549.80 349.74
  L 533.21 402.43
  L 533.24 402.98
  L 533.61 403.38
  L 540.71 406.98
  L 540.96 407.00
  L 541.14 406.82
  L 541.15 406.80
  L 558.11 350.54
  L 558.46 350.04
  L 559.03 349.84
  L 559.44 349.83
  L 563.08 349.42
  L 566.56 348.47
  L 569.99 346.96
  L 573.19 344.99
  L 576.25 342.47
  L 578.96 339.58
  L 581.35 336.29
  L 583.30 332.75
  L 584.32 330.31
  L 585.06 327.94
  L 585.56 325.54
  L 585.79 323.24
  L 585.75 320.91
  L 585.45 318.70
  L 584.88 316.52
  L 584.05 314.48
  L 582.61 312.02
  L 580.83 309.85
  L 578.66 307.92
  L 576.22 306.35
  L 573.51 305.15
  L 570.62 304.36
  L 567.72 304.01
  L 564.75 304.11
  L 562.57 304.47
  L 560.40 305.08
  L 558.36 305.92
  L 556.36 307.00
  L 554.52 308.27
  L 552.74 309.79
  L 551.13 311.47
  L 549.60 313.39
  L 549.37 313.72
  L 548.07 315.88
  L 547.01 318.26
  L 546.11 321.03
  L 545.17 324.77
  L 544.04 329.19
  L 542.86 332.52
  L 542.74 332.67
  L 542.37 332.72
  L 542.15 332.42
  L 541.80 329.34
  L 540.80 322.10
  L 540.20 319.66
  L 539.46 317.71
  L 538.04 315.36
  L 536.24 313.48
  L 536.24 313.48
  L 536.24 313.48
  L 535.00 312.61
  L 533.63 311.89
  L 530.49 310.95
  L 527.76 310.63
  L 525.27 310.73
  L 523.03 311.24
  L 521.03 312.15
  L 521.03 312.15
  L 519.58 313.20
  L 518.30 314.52
  L 517.18 316.12
  L 516.22 317.99
  L 515.53 319.91
  L 514.99 322.18
  L 514.19 328.61
  L 514.11 329.51
  L 513.81 330.62
  L 513.14 331.71
  L 512.96 331.84
  L 512.87 331.64
  Z
  M 409.6210 336.4243
  L 411.4782 336.1271
  L 413.2425 335.4557
  L 414.8461 334.4358
  L 416.2273 333.1068
  L 417.3330 331.5197
  L 418.1209 329.7354
  L 418.5605 327.8226
  L 418.6350 325.8547
  L 418.3416 323.9074
  L 417.6915 322.0554
  L 416.7097 320.3701
  L 415.4339 318.9161
  L 413.9132 317.7493
  L 412.2059 316.9146
  L 410.3778 316.4440
  L 408.4990 316.3557
  L 406.6418 316.6529
  L 404.8775 317.3243
  L 403.2739 318.3442
  L 401.8927 319.6732
  L 400.7870 321.2603
  L 399.9991 323.0446
  L 399.5595 324.9574
  L 399.4850 326.9253
  L 399.7784 328.8726
  L 400.4285 330.7246
  L 401.4103 332.4099
  L 402.6861 333.8639
  L 404.2068 335.0307
  L 405.9141 335.8654
  L 407.7422 336.3360
  L 409.6210 336.4243
  Z
  M 629.51 361.83
  L 625.79 367.94
  L 621.95 373.63
  L 618.00 378.88
  L 613.94 383.70
  L 603.73 394.61
  L 596.36 402.40
  L 591.21 408.19
  L 586.91 413.49
  L 583.28 418.56
  L 580.16 423.67
  L 577.60 428.79
  L 575.61 433.90
  L 574.16 439.08
  L 573.22 444.33
  L 572.79 449.66
  L 572.85 455.26
  L 573.41 460.98
  L 574.28 466.28
  L 574.61 468.81
  L 574.60 471.21
  L 574.27 473.47
  L 573.60 475.60
  L 573.60 475.60
  L 573.60 475.60
  L 572.73 477.37
  L 571.60 479.04
  L 570.21 480.60
  L 568.56 482.06
  L 562.65 486.24
  L 556.48 489.69
  L 556.14 489.90
  L 555.73 490.28
  L 555.23 490.74
  L 554.23 491.10
  L 554.06 491.18
  L 554.22 491.28
  L 554.60 491.37
  L 555.38 491.25
  L 557.29 490.62
  L 557.94 490.46
  L 562.54 489.14
  L 566.63 487.26
  L 570.20 484.82
  L 573.22 481.86
  L 575.24 479.09
  L 576.87 475.99
  L 578.09 472.58
  L 578.89 468.87
  L 579.06 465.15
  L 578.74 459.62
  L 578.53 453.33
  L 579.01 446.87
  L 580.17 440.46
  L 582.01 434.01
  L 584.51 427.68
  L 587.58 421.68
  L 591.22 416.00
  L 595.31 410.81
  L 599.18 406.42
  L 606.35 398.23
  L 611.41 392.18
  L 615.61 386.76
  L 619.10 381.77
  L 622.15 376.90
  L 625.05 371.88
  L 627.79 366.69
  L 630.38 361.34
  L 630.34 360.97
  L 629.99 360.83
  L 629.80 360.93
  L 629.66 361.39
  L 629.51 361.83
  Z
  M 519.9397 382.7500
  L 519.7723 381.2219
  L 519.3031 379.7552
  L 518.5501 378.4063
  L 517.5424 377.2270
  L 516.3186 376.2626
  L 514.9258 375.5503
  L 513.4175 375.1173
  L 511.8516 374.9803
  L 510.2883 375.1446
  L 508.7878 375.6038
  L 507.4076 376.3404
  L 506.2008 377.3260
  L 505.2139 378.5227
  L 504.4846 379.8845
  L 504.0411 381.3592
  L 503.9003 382.8900
  L 504.0677 384.4181
  L 504.5369 385.8848
  L 505.2899 387.2337
  L 506.2976 388.4130
  L 507.5214 389.3774
  L 508.9142 390.0897
  L 510.4225 390.5227
  L 511.9884 390.6597
  L 513.5517 390.4954
  L 515.0522 390.0362
  L 516.4324 389.2996
  L 517.6392 388.3140
  L 518.6261 387.1173
  L 519.3554 385.7555
  L 519.7989 384.2808
  L 519.9397 382.7500
  Z
  M 531.30 463.22
  L 531.71 495.26
  L 531.92 495.86
  L 532.51 496.06
  L 536.71 496.10
  L 537.15 495.95
  L 537.30 495.51
  L 537.24 460.00
  L 537.47 458.55
  L 538.19 457.07
  L 540.91 452.21
  L 542.77 447.42
  L 543.37 445.04
  L 543.76 442.68
  L 543.93 440.33
  L 543.88 437.99
  L 543.88 437.99
  L 543.88 437.99
  L 543.88 437.99
  L 543.42 434.61
  L 542.50 431.25
  L 541.10 427.92
  L 539.25 424.63
  L 537.17 421.80
  L 534.09 418.71
  L 530.46 416.08
  L 526.68 414.02
  L 522.86 412.47
  L 519.00 411.42
  L 515.11 410.86
  L 515.11 410.86
  L 515.11 410.86
  L 515.11 410.86
  L 511.23 410.81
  L 507.31 411.24
  L 503.35 412.16
  L 499.36 413.57
  L 495.70 415.29
  L 492.47 417.27
  L 489.65 419.51
  L 487.25 422.00
  L 485.56 424.28
  L 483.52 428.05
  L 482.11 432.26
  L 481.42 436.69
  L 481.43 441.20
  L 482.15 445.80
  L 483.56 450.28
  L 485.63 454.51
  L 488.32 458.41
  L 488.73 459.10
  L 488.95 460.26
  L 488.76 477.96
  L 488.81 495.70
  L 489.00 496.17
  L 489.46 496.40
  L 494.47 496.83
  L 495.20 496.65
  L 495.44 495.94
  L 495.46 463.97
  L 495.47 463.87
  L 495.71 463.59
  L 496.08 463.61
  L 501.92 466.92
  L 502.19 467.18
  L 502.28 467.53
  L 502.31 496.81
  L 502.60 497.52
  L 503.31 497.83
  L 522.45 498.06
  L 522.46 498.06
  L 523.09 497.80
  L 523.34 497.17
  L 523.07 467.84
  L 523.20 467.36
  L 523.55 467.02
  L 530.88 462.97
  L 531.19 462.92
  L 531.30 463.22
  Z
  M 496.30 522.73
  L 502.87 523.55
  L 506.13 523.65
  L 509.37 523.55
  L 518.18 523.03
  L 520.99 523.04
  L 524.96 523.02
  L 527.94 522.79
  L 530.56 522.29
  L 533.00 521.48
  L 533.62 521.22
  L 536.93 521.48
  L 540.42 521.43
  L 543.94 521.10
  L 547.62 520.47
  L 551.45 519.55
  L 555.54 518.33
  L 565.93 514.53
  L 569.44 512.89
  L 572.19 510.96
  L 574.06 508.84
  L 574.68 507.71
  L 575.11 506.48
  L 575.33 504.31
  L 574.98 502.09
  L 574.80 501.78
  L 574.58 502.06
  L 573.81 503.59
  L 572.87 505.02
  L 570.36 507.73
  L 567.02 510.19
  L 562.93 512.35
  L 558.06 514.23
  L 552.51 515.81
  L 546.22 517.11
  L 538.80 518.23
  L 533.56 519.24
  L 528.32 520.26
  L 515.68 520.34
  L 514.49 519.73
  L 514.35 519.45
  L 514.64 519.33
  L 518.31 519.21
  L 522.66 519.07
  L 525.75 518.70
  L 528.04 518.05
  L 529.63 517.08
  L 530.50 516.71
  L 536.42 516.12
  L 541.89 515.29
  L 546.86 514.21
  L 551.47 512.86
  L 555.66 511.26
  L 559.48 509.39
  L 563.01 507.21
  L 566.13 504.78
  L 566.63 504.08
  L 566.80 503.26
  L 566.64 502.90
  L 566.24 502.84
  L 559.94 505.02
  L 553.80 506.73
  L 547.75 508.04
  L 541.44 509.02
  L 534.44 509.80
  L 527.43 510.37
  L 520.43 510.71
  L 513.42 510.84
  L 513.42 510.84
  L 513.42 510.84
  L 513.42 510.84
  L 513.42 510.84
  L 504.88 510.69
  L 496.33 510.22
  L 487.79 509.43
  L 479.24 508.31
  L 473.39 507.22
  L 467.65 505.73
  L 460.01 503.07
  L 452.59 499.67
  L 451.72 499.59
  L 451.05 500.15
  L 450.13 502.57
  L 449.95 504.87
  L 450.34 506.83
  L 451.21 508.68
  L 452.60 510.54
  L 454.40 512.26
  L 454.86 512.64
  L 454.86 512.64
  L 458.36 515.09
  L 462.21 517.08
  L 466.44 518.62
  L 471.02 519.71
  L 489.25 522.81
  L 490.89 522.93
  L 492.76 522.85
  L 496.30 522.73
  Z
  M 453.63 595.63
  L 449.50 593.86
  L 445.69 591.54
  L 442.28 588.74
  L 439.36 585.52
  L 437.08 582.08
  L 435.40 578.37
  L 434.40 574.49
  L 434.13 570.67
  L 434.35 568.06
  L 434.89 565.43
  L 435.75 562.88
  L 436.96 560.32
  L 437.09 559.84
  L 436.95 559.37
  L 435.61 556.73
  L 434.64 554.07
  L 434.03 551.41
  L 433.78 548.74
  L 433.78 548.74
  L 433.91 546.06
  L 434.40 543.36
  L 435.25 540.65
  L 436.48 537.94
  L 436.59 537.51
  L 436.44 537.08
  L 434.74 534.14
  L 433.56 531.22
  L 432.89 528.32
  L 432.74 525.44
  L 432.74 525.44
  L 432.74 525.44
  L 432.74 525.44
  L 433.07 522.72
  L 433.87 520.02
  L 435.14 517.33
  L 436.87 514.66
  L 437.01 514.32
  L 436.95 513.98
  L 434.86 509.13
  L 434.20 508.50
  L 433.29 508.55
  L 433.29 508.55
  L 433.24 508.57
  L 416.77 517.40
  L 400.18 525.94
  L 383.48 534.17
  L 366.67 542.09
  L 349.75 549.72
  L 332.72 557.04
  L 315.57 564.06
  L 298.31 570.78
  L 281.12 576.98
  L 264.73 582.25
  L 248.93 586.65
  L 233.56 590.23
  L 218.72 592.96
  L 204.22 594.87
  L 190.15 595.95
  L 183.27 596.18
  L 176.39 596.21
  L 176.04 596.42
  L 176.07 596.82
  L 176.26 596.96
  L 186.83 601.11
  L 195.32 604.50
  L 203.85 607.65
  L 214.74 611.92
  L 225.54 616.43
  L 285.57 642.49
  L 326.99 660.71
  L 372.10 680.51
  L 417.32 700.06
  L 465.04 720.25
  L 512.73 739.83
  L 513.70 740.02
  L 514.68 739.84
  L 567.51 718.54
  L 620.22 696.87
  L 672.81 674.85
  L 725.28 652.46
  L 762.04 636.67
  L 849.12 599.04
  L 849.27 598.91
  L 849.29 598.56
  L 848.99 598.36
  L 845.03 598.23
  L 831.30 597.60
  L 826.12 597.13
  L 821.39 596.50
  L 812.26 594.94
  L 803.15 593.15
  L 794.04 591.11
  L 784.95 588.84
  L 775.86 586.32
  L 766.78 583.57
  L 757.72 580.58
  L 748.66 577.35
  L 717.22 565.32
  L 686.58 552.80
  L 656.74 539.79
  L 627.71 526.30
  L 607.76 516.45
  L 592.42 508.24
  L 592.06 508.17
  L 591.80 508.41
  L 589.02 513.47
  L 588.90 513.93
  L 589.04 514.38
  L 590.56 517.26
  L 591.66 520.15
  L 592.32 523.04
  L 592.56 525.93
  L 592.56 525.93
  L 592.56 525.93
  L 592.56 525.93
  L 592.37 528.76
  L 591.78 531.59
  L 590.77 534.42
  L 589.36 537.25
  L 589.22 537.72
  L 589.33 538.21
  L 590.43 540.77
  L 591.21 543.33
  L 591.67 545.89
  L 591.83 548.45
  L 591.83 548.45
  L 591.66 551.05
  L 591.17 553.65
  L 590.35 556.25
  L 589.21 558.85
  L 589.10 559.34
  L 589.25 559.83
  L 590.91 563.07
  L 591.95 566.44
  L 591.95 566.44
  L 591.95 566.44
  L 592.39 570.26
  L 592.09 574.24
  L 592.23 574.88
  L 592.78 575.26
  L 599.78 577.14
  L 606.54 579.51
  L 612.42 582.16
  L 617.47 585.08
  L 621.43 588.13
  L 623.03 589.70
  L 624.42 591.37
  L 625.51 593.00
  L 626.36 594.72
  L 626.94 596.42
  L 627.27 598.19
  L 627.33 600.30
  L 627.02 602.51
  L 626.51 604.15
  L 625.76 605.75
  L 624.71 607.40
  L 623.43 608.99
  L 620.01 612.23
  L 615.58 615.39
  L 610.00 618.55
  L 603.56 621.54
  L 596.25 624.36
  L 588.83 626.70
  L 580.80 628.63
  L 569.56 630.85
  L 557.71 632.67
  L 545.42 633.85
  L 532.22 634.45
  L 517.25 634.49
  L 506.64 634.00
  L 501.83 633.51
  L 497.36 632.84
  L 487.28 630.78
  L 477.91 628.28
  L 469.69 625.45
  L 462.86 622.37
  L 459.96 620.75
  L 457.46 619.10
  L 455.29 617.40
  L 453.41 615.59
  L 451.95 613.80
  L 450.81 611.91
  L 450.04 610.02
  L 449.61 608.03
  L 449.61 605.27
  L 450.32 602.34
  L 451.70 599.40
  L 453.83 596.29
  L 453.96 595.90
  L 453.63 595.63
  Z
  M 521.81 541.31
  L 533.49 538.63
  L 544.12 536.23
  L 548.09 535.09
  L 551.70 533.85
  L 555.08 532.44
  L 558.18 530.88
  L 561.14 529.09
  L 563.83 527.14
  L 563.90 527.04
  L 563.86 526.82
  L 563.64 526.75
  L 555.67 528.42
  L 547.39 529.77
  L 538.71 530.80
  L 529.73 531.50
  L 520.33 531.87
  L 510.62 531.92
  L 500.47 531.65
  L 489.99 531.06
  L 480.52 530.02
  L 471.04 528.25
  L 461.54 525.72
  L 452.02 522.46
  L 451.60 522.45
  L 451.26 522.68
  L 450.38 524.14
  L 449.92 525.62
  L 449.82 526.91
  L 449.97 528.20
  L 450.39 529.54
  L 451.03 530.84
  L 451.96 532.21
  L 453.08 533.47
  L 455.82 535.67
  L 458.47 537.23
  L 461.17 538.58
  L 465.44 540.28
  L 470.06 541.61
  L 478.11 543.30
  L 486.22 544.47
  L 486.22 544.47
  L 495.21 545.18
  L 504.27 545.26
  L 509.37 545.15
  L 522.67 544.95
  L 526.00 544.91
  L 530.78 544.75
  L 535.53 544.38
  L 540.23 543.79
  L 544.89 543.00
  L 544.89 543.00
  L 544.89 543.00
  L 544.89 543.00
  L 551.95 541.37
  L 558.92 539.25
  L 559.61 539.02
  L 565.86 536.66
  L 568.13 535.54
  L 570.08 534.35
  L 571.75 533.03
  L 573.05 531.67
  L 574.04 530.20
  L 574.75 528.56
  L 575.18 525.98
  L 575.07 525.56
  L 574.70 525.79
  L 571.28 529.06
  L 567.28 531.88
  L 562.67 534.26
  L 557.48 536.19
  L 548.06 538.70
  L 543.31 539.66
  L 538.53 540.42
  L 538.53 540.42
  L 530.23 541.27
  L 521.84 541.52
  L 521.75 541.35
  L 521.81 541.31
  Z
  M 528.05 562.49
  L 528.81 561.71
  L 529.67 561.20
  L 529.67 561.20
  L 530.50 560.98
  L 537.94 559.66
  L 545.08 557.85
  L 551.94 555.55
  L 558.50 552.75
  L 561.18 551.13
  L 563.15 549.13
  L 563.33 548.63
  L 562.81 548.59
  L 555.26 550.39
  L 547.16 552.30
  L 540.85 553.26
  L 532.47 553.88
  L 523.02 554.15
  L 512.54 554.07
  L 498.18 553.62
  L 496.49 553.56
  L 490.52 553.23
  L 484.75 552.67
  L 479.15 551.88
  L 473.67 550.86
  L 468.74 549.71
  L 463.84 548.36
  L 453.80 544.94
  L 452.87 544.84
  L 452.01 545.20
  L 450.85 546.54
  L 450.51 547.42
  L 450.38 548.36
  L 450.71 550.54
  L 451.87 552.95
  L 453.65 555.13
  L 456.30 557.35
  L 459.43 559.38
  L 463.02 561.18
  L 467.03 562.74
  L 471.50 564.07
  L 476.36 565.16
  L 481.62 566.02
  L 487.50 566.67
  L 493.28 567.02
  L 500.75 567.17
  L 520.74 566.88
  L 531.14 566.30
  L 540.98 565.16
  L 550.26 563.46
  L 558.97 561.20
  L 562.59 560.03
  L 565.70 558.82
  L 568.30 557.57
  L 570.50 556.23
  L 572.27 554.82
  L 573.57 553.39
  L 574.45 551.88
  L 574.94 550.23
  L 574.99 548.92
  L 574.77 548.55
  L 574.34 548.52
  L 574.21 548.61
  L 570.88 551.47
  L 567.34 553.90
  L 563.21 556.05
  L 558.61 557.80
  L 553.27 559.27
  L 546.04 560.78
  L 538.80 562.01
  L 531.49 562.94
  L 531.20 562.97
  L 528.24 562.93
  L 527.95 562.79
  L 528.05 562.49
  Z
  M 522.16 585.15
  L 522.01 585.10
  L 521.92 584.86
  L 522.09 584.67
  L 532.38 582.12
  L 537.26 581.18
  L 540.40 580.48
  L 544.50 579.29
  L 549.46 577.90
  L 552.37 577.13
  L 555.14 576.13
  L 557.77 574.92
  L 560.27 573.50
  L 563.14 571.45
  L 563.37 571.13
  L 563.40 570.74
  L 563.23 570.39
  L 562.90 570.18
  L 562.90 570.18
  L 562.47 570.18
  L 556.17 571.91
  L 549.58 573.31
  L 542.53 574.40
  L 535.08 575.18
  L 527.37 575.66
  L 518.79 575.88
  L 509.30 575.86
  L 496.48 575.60
  L 492.01 575.49
  L 488.36 575.22
  L 483.58 574.56
  L 470.66 572.06
  L 462.21 569.74
  L 456.40 568.04
  L 452.22 567.03
  L 451.81 567.06
  L 451.51 567.37
  L 450.91 568.80
  L 450.63 570.21
  L 450.69 571.91
  L 451.13 573.56
  L 451.99 575.27
  L 453.17 576.87
  L 454.73 578.46
  L 456.67 579.99
  L 458.79 581.28
  L 460.91 582.26
  L 468.15 584.74
  L 475.51 586.66
  L 475.51 586.66
  L 483.74 588.11
  L 492.13 588.88
  L 501.92 589.09
  L 517.41 589.03
  L 528.62 588.55
  L 539.84 587.43
  L 549.70 585.82
  L 554.04 584.85
  L 558.01 583.76
  L 561.50 582.58
  L 564.55 581.33
  L 567.20 579.98
  L 569.53 578.48
  L 571.35 576.95
  L 572.81 575.28
  L 573.83 573.55
  L 574.45 571.69
  L 574.56 571.05
  L 574.53 570.76
  L 574.07 570.38
  L 573.51 570.58
  L 571.40 572.77
  L 569.10 574.70
  L 569.10 574.70
  L 567.07 576.09
  L 564.92 577.31
  L 562.64 578.37
  L 560.23 579.25
  L 553.13 581.26
  L 545.94 582.74
  L 545.94 582.74
  L 538.83 583.67
  L 531.63 584.09
  L 527.03 584.61
  L 522.16 585.15
  Z
  M 490.97 600.37
  L 485.28 599.03
  L 479.87 598.48
  L 479.73 598.49
  L 479.42 598.77
  L 479.45 599.19
  L 482.47 603.56
  L 486.01 607.65
  L 489.93 611.31
  L 494.22 614.52
  L 498.68 617.11
  L 503.18 619.05
  L 507.84 620.37
  L 512.41 621.00
  L 514.62 621.04
  L 516.82 620.87
  L 521.34 619.93
  L 525.92 618.17
  L 530.46 615.62
  L 534.90 612.32
  L 539.06 608.39
  L 542.85 603.93
  L 546.07 599.14
  L 546.10 598.51
  L 545.60 598.13
  L 545.35 598.13
  L 540.02 599.03
  L 534.11 599.67
  L 527.38 600.10
  L 518.05 600.41
  L 504.00 600.99
  L 499.72 600.87
  L 492.86 600.08
  L 492.46 600.08
  L 492.19 600.16
  L 491.81 600.32
  L 491.40 600.42
  L 490.97 600.37
  Z
  M 198.65 618.46
  L 213.15 626.21
  L 224.75 631.67
  L 311.42 669.86
  L 361.70 691.97
  L 412.17 713.77
  L 462.84 735.26
  L 513.71 756.44
  L 514.36 756.57
  L 515.01 756.45
  L 576.51 731.30
  L 637.87 705.75
  L 699.11 679.82
  L 760.22 653.49
  L 775.02 646.98
  L 800.42 635.48
  L 800.87 635.27
  L 808.01 631.63
  L 815.81 626.99
  L 815.90 626.90
  L 815.91 626.64
  L 815.69 626.49
  L 815.49 626.47
  L 814.54 626.64
  L 809.26 628.64
  L 792.59 635.03
  L 780.56 639.93
  L 758.90 649.12
  L 638.16 700.12
  L 590.20 720.07
  L 544.36 738.89
  L 514.92 750.50
  L 513.77 750.71
  L 512.63 750.48
  L 461.87 729.65
  L 406.86 706.35
  L 346.16 679.98
  L 266.24 644.68
  L 232.76 630.34
  L 216.33 623.39
  L 212.02 621.66
  L 207.69 620.14
  L 203.32 618.82
  L 198.93 617.71
  L 198.68 617.74
  L 198.44 618.09
  L 198.65 618.46
  Z
  M 804.25 644.65
  L 754.03 666.43
  L 697.64 690.85
  L 656.25 708.33
  L 622.31 722.55
  L 589.79 736.18
  L 565.93 745.95
  L 515.65 766.51
  L 514.33 766.77
  L 513.02 766.50
  L 468.51 747.50
  L 424.75 728.82
  L 392.80 714.98
  L 357.79 699.94
  L 344.18 693.96
  L 322.22 683.96
  L 295.24 671.68
  L 274.78 662.61
  L 238.80 646.59
  L 203.08 629.94
  L 202.64 629.88
  L 202.30 630.16
  L 200.65 632.45
  L 198.82 634.56
  L 198.82 634.56
  L 198.82 634.56
  L 196.65 636.63
  L 194.27 638.51
  L 194.19 638.58
  L 194.07 638.98
  L 194.31 639.33
  L 202.13 643.58
  L 210.29 647.46
  L 256.22 667.96
  L 302.02 688.76
  L 319.99 697.01
  L 338.26 705.11
  L 376.25 721.78
  L 410.44 736.79
  L 444.70 751.60
  L 479.03 766.21
  L 513.44 780.63
  L 513.93 780.73
  L 514.44 780.62
  L 531.47 773.46
  L 548.77 766.32
  L 562.05 760.79
  L 571.81 756.96
  L 589.68 749.70
  L 600.27 745.29
  L 623.91 735.36
  L 639.76 728.64
  L 651.42 723.89
  L 662.74 719.15
  L 680.88 711.08
  L 700.13 702.49
  L 714.08 696.53
  L 742.10 684.63
  L 761.37 676.12
  L 780.54 667.37
  L 783.85 665.68
  L 786.96 663.79
  L 789.88 661.69
  L 792.61 659.37
  L 792.61 659.37
  L 796.36 655.49
  L 799.67 651.14
  L 801.53 648.71
  L 804.18 645.88
  L 804.72 645.32
  L 804.83 645.11
  L 804.68 644.71
  L 804.25 644.65
  Z
  M 382.72 739.77
  L 445.79 767.58
  L 478.31 781.50
  L 511.03 795.51
  L 512.12 795.89
  L 513.24 796.06
  L 514.24 796.01
  L 515.18 795.73
  L 527.81 790.25
  L 545.58 783.02
  L 558.00 778.00
  L 575.73 770.73
  L 613.64 755.01
  L 700.64 717.53
  L 779.36 683.06
  L 797.56 674.77
  L 809.82 669.08
  L 832.39 658.45
  L 840.93 654.16
  L 848.58 650.11
  L 849.64 649.31
  L 850.22 648.36
  L 850.22 648.36
  L 850.34 647.61
  L 850.24 646.79
  L 849.98 646.40
  L 849.51 646.44
  L 791.72 672.23
  L 749.77 690.87
  L 703.32 711.10
  L 652.38 732.91
  L 596.94 756.31
  L 556.85 772.84
  L 516.05 789.68
  L 513.67 790.30
  L 512.61 790.29
  L 511.63 790.05
  L 511.63 790.05
  L 511.63 790.05
  L 511.51 790.00
  L 485.55 779.21
  L 448.09 763.12
  L 382.67 734.60
  L 317.36 705.83
  L 282.06 689.85
  L 244.94 673.07
  L 223.38 663.29
  L 186.75 646.29
  L 183.19 644.81
  L 178.13 643.09
  L 176.48 642.55
  L 175.81 642.50
  L 175.19 642.78
  L 174.78 643.32
  L 174.68 643.99
  L 174.68 643.99
  L 174.85 644.53
  L 176.16 646.13
  L 178.11 647.41
  L 180.86 648.76
  L 200.13 657.78
  L 252.53 681.49
  L 304.84 705.38
  L 329.10 716.31
  L 362.43 730.92
  L 382.72 739.77
  Z
  M 812.66 685.13
  L 812.90 684.87
  L 812.60 684.70
  L 811.93 684.70
  L 811.11 684.96
  L 758.17 708.06
  L 758.17 708.06
  L 662.09 749.67
  L 565.86 790.96
  L 538.09 802.28
  L 514.20 811.96
  L 513.22 811.98
  L 508.01 809.77
  L 478.75 796.41
  L 438.75 778.76
  L 369.14 747.78
  L 254.85 696.12
  L 226.55 683.40
  L 205.90 674.39
  L 199.73 672.17
  L 198.78 672.17
  L 198.41 672.48
  L 198.26 673.46
  L 198.48 674.00
  L 198.91 674.40
  L 200.84 675.54
  L 207.60 679.44
  L 212.73 682.04
  L 245.43 696.87
  L 270.57 708.23
  L 328.54 734.62
  L 414.48 773.29
  L 422.98 777.11
  L 491.37 807.78
  L 500.16 811.86
  L 512.42 817.50
  L 512.91 817.60
  L 513.39 817.49
  L 531.34 809.62
  L 553.97 800.28
  L 565.87 795.39
  L 582.05 788.45
  L 604.99 778.71
  L 619.74 772.52
  L 639.79 763.79
  L 671.69 750.07
  L 688.58 742.59
  L 701.37 736.85
  L 720.16 728.79
  L 739.68 720.42
  L 753.59 714.20
  L 787.78 698.40
  L 798.76 692.91
  L 812.66 685.13
  Z
  M 452.03 795.97
  L 412.22 778.00
  L 360.35 754.74
  L 308.57 731.27
  L 306.50 730.19
  L 304.42 729.12
  L 290.67 723.21
  L 277.04 717.05
  L 244.86 702.34
  L 202.17 683.20
  L 201.59 683.06
  L 200.99 683.15
  L 200.47 683.44
  L 200.09 683.91
  L 198.78 686.10
  L 197.29 688.14
  L 197.29 688.14
  L 197.29 688.14
  L 195.57 690.07
  L 193.67 691.86
  L 193.44 692.24
  L 193.74 692.58
  L 204.54 698.21
  L 331.03 756.01
  L 419.42 796.33
  L 461.85 815.56
  L 511.55 838.12
  L 513.66 838.78
  L 515.63 838.77
  L 517.68 838.25
  L 519.74 837.46
  L 554.24 822.19
  L 591.52 806.10
  L 609.82 798.04
  L 632.14 788.47
  L 648.08 781.69
  L 738.01 742.01
  L 752.98 734.99
  L 769.71 727.17
  L 781.15 721.73
  L 785.05 719.56
  L 787.73 717.74
  L 791.28 714.70
  L 794.92 711.13
  L 798.75 706.94
  L 803.80 701.03
  L 805.52 698.98
  L 805.58 698.62
  L 805.30 698.38
  L 805.10 698.41
  L 697.40 746.05
  L 675.31 755.53
  L 650.59 766.16
  L 614.96 781.49
  L 582.41 795.46
  L 559.74 805.19
  L 528.57 818.08
  L 519.23 821.91
  L 518.70 822.13
  L 516.18 823.08
  L 514.39 823.37
  L 512.72 823.14
  L 510.69 822.38
  L 492.11 813.80
  L 473.42 805.46
  L 473.42 805.46
  L 470.30 804.09
  L 452.03 795.97
  Z
  M 515.48 848.66
  L 514.48 848.88
  L 513.47 848.67
  L 455.01 822.56
  L 396.88 796.20
  L 355.20 777.05
  L 314.73 758.52
  L 274.15 740.25
  L 255.95 731.91
  L 191.94 702.03
  L 188.46 700.38
  L 181.51 697.13
  L 176.44 695.02
  L 175.90 694.95
  L 175.38 695.14
  L 175.01 695.54
  L 174.85 696.06
  L 174.89 696.42
  L 175.25 697.39
  L 176.29 698.81
  L 177.87 699.96
  L 187.90 705.15
  L 201.95 711.78
  L 207.72 714.45
  L 271.16 743.83
  L 334.81 772.74
  L 392.87 799.31
  L 436.57 819.38
  L 468.65 833.79
  L 491.27 844.05
  L 513.68 854.72
  L 514.41 854.89
  L 515.14 854.74
  L 541.43 842.94
  L 567.82 831.43
  L 613.35 811.66
  L 675.46 784.29
  L 720.27 764.52
  L 749.86 751.26
  L 779.27 737.61
  L 779.27 737.61
  L 804.44 725.54
  L 829.47 713.19
  L 844.70 705.54
  L 846.57 704.39
  L 848.16 702.97
  L 848.16 702.97
  L 848.16 702.97
  L 849.23 701.61
  L 850.12 700.08
  L 850.10 699.59
  L 849.70 699.33
  L 849.51 699.35
  L 846.73 700.43
  L 801.46 721.99
  L 755.94 743.01
  L 755.94 743.01
  L 705.75 765.46
  L 616.71 804.38
  L 560.77 828.62
  L 537.95 838.60
  L 515.48 848.66
  Z
  M 554.54 861.09
  L 570.56 854.40
  L 586.23 847.09
  L 588.45 845.77
  L 590.22 844.20
  L 595.26 842.86
  L 600.31 840.94
  L 644.97 821.35
  L 679.88 805.71
  L 724.96 785.38
  L 777.64 761.42
  L 782.00 759.28
  L 785.60 757.21
  L 788.54 755.15
  L 790.98 752.99
  L 798.29 745.34
  L 805.40 737.39
  L 805.47 737.00
  L 805.16 736.75
  L 804.95 736.78
  L 575.02 839.79
  L 568.38 842.27
  L 561.84 844.99
  L 561.84 844.99
  L 561.84 844.99
  L 555.85 847.73
  L 549.94 850.67
  L 516.66 865.47
  L 515.74 865.66
  L 514.82 865.45
  L 476.92 847.54
  L 461.36 840.48
  L 446.91 834.15
  L 439.32 830.73
  L 428.50 825.55
  L 420.91 821.92
  L 377.86 802.22
  L 275.14 755.60
  L 238.66 738.65
  L 204.08 722.56
  L 203.32 722.47
  L 202.64 722.84
  L 194.40 731.48
  L 194.25 731.91
  L 194.47 732.31
  L 194.53 732.35
  L 200.76 735.48
  L 363.68 809.93
  L 385.39 819.88
  L 418.41 835.17
  L 467.64 857.83
  L 484.88 865.79
  L 500.15 872.86
  L 511.28 877.82
  L 513.04 878.46
  L 514.52 878.66
  L 515.86 878.47
  L 517.61 877.83
  L 537.95 868.79
  L 554.54 861.09
  Z
  M 232.44 764.83
  L 330.07 809.17
  L 436.30 858.19
  L 437.66 859.05
  L 439.38 860.10
  L 463.80 870.84
  L 497.29 886.34
  L 512.78 893.58
  L 514.15 893.89
  L 515.52 893.60
  L 667.97 825.21
  L 738.63 793.49
  L 843.86 745.65
  L 847.42 743.60
  L 849.98 741.49
  L 850.25 740.72
  L 849.80 740.04
  L 849.80 740.04
  L 849.55 739.95
  L 848.55 740.20
  L 837.30 744.55
  L 824.88 749.78
  L 760.25 778.61
  L 727.51 793.51
  L 709.26 801.72
  L 612.12 844.93
  L 515.16 888.56
  L 514.16 888.62
  L 510.49 887.25
  L 506.40 885.38
  L 486.83 876.03
  L 462.24 864.68
  L 458.76 862.61
  L 455.59 860.69
  L 449.26 857.86
  L 442.10 855.00
  L 434.66 852.06
  L 428.58 849.41
  L 350.63 813.53
  L 272.52 778.03
  L 254.58 769.94
  L 232.95 760.07
  L 201.49 745.81
  L 178.15 735.92
  L 177.48 735.82
  L 176.83 736.04
  L 176.07 736.69
  L 175.76 737.40
  L 175.76 737.40
  L 175.94 738.28
  L 176.46 738.91
  L 177.35 739.46
  L 202.49 751.21
  L 232.44 764.83
  Z
  M 569.77 892.96
  L 573.79 891.15
  L 588.42 884.34
  L 606.56 876.00
  L 615.32 872.21
  L 615.32 872.21
  L 635.85 863.15
  L 656.28 853.85
  L 674.48 845.59
  L 719.16 825.54
  L 763.66 805.10
  L 781.92 796.93
  L 799.27 789.23
  L 826.68 776.45
  L 837.62 770.84
  L 848.95 764.32
  L 849.07 764.24
  L 849.40 763.84
  L 849.54 763.34
  L 849.46 762.83
  L 849.18 762.40
  L 848.88 762.17
  L 848.88 762.17
  L 847.87 761.96
  L 846.51 762.31
  L 835.30 766.85
  L 816.64 774.59
  L 759.58 800.32
  L 715.69 820.18
  L 608.17 868.40
  L 604.65 870.06
  L 598.15 872.95
  L 591.56 875.67
  L 591.56 875.67
  L 587.04 877.90
  L 582.64 880.37
  L 578.01 882.59
  L 569.92 885.79
  L 565.58 887.92
  L 562.00 889.76
  L 516.40 909.64
  L 514.82 910.13
  L 513.28 910.17
  L 511.79 909.73
  L 427.47 870.69
  L 309.22 816.31
  L 242.86 786.05
  L 189.52 762.17
  L 181.92 759.32
  L 181.44 759.25
  L 180.91 759.42
  L 176.44 761.98
  L 176.09 762.52
  L 176.32 763.11
  L 176.50 763.23
  L 260.20 801.20
  L 343.80 839.44
  L 427.28 877.94
  L 510.65 916.72
  L 512.45 917.37
  L 514.14 917.54
  L 515.80 917.20
  L 517.94 916.22
  L 519.77 915.34
  L 533.72 909.24
  L 554.63 900.02
  L 569.77 892.96
  Z
  M 562.28 923.37
  L 569.34 920.63
  L 575.99 917.26
  L 609.27 902.20
  L 610.84 901.74
  L 612.29 901.06
  L 613.74 900.03
  L 616.48 898.78
  L 618.22 898.24
  L 619.58 897.32
  L 619.96 896.91
  L 637.50 888.81
  L 639.90 888.20
  L 639.90 888.20
  L 641.89 887.28
  L 643.74 886.00
  L 652.09 882.58
  L 657.83 880.31
  L 661.79 878.48
  L 671.27 873.79
  L 784.20 821.35
  L 786.45 820.19
  L 788.77 818.73
  L 793.33 815.11
  L 798.07 810.39
  L 804.10 803.45
  L 806.60 800.50
  L 806.66 800.36
  L 806.55 800.10
  L 806.27 800.07
  L 784.69 810.15
  L 762.91 819.92
  L 736.59 831.68
  L 700.74 848.07
  L 663.93 864.89
  L 660.66 866.19
  L 657.57 867.40
  L 655.34 868.47
  L 647.23 872.72
  L 639.00 876.65
  L 631.99 879.43
  L 628.56 881.12
  L 625.20 882.99
  L 611.50 889.17
  L 608.15 890.19
  L 604.22 891.78
  L 586.30 900.22
  L 568.49 908.98
  L 558.25 914.22
  L 557.98 914.34
  L 557.39 914.48
  L 555.92 914.80
  L 554.23 915.41
  L 533.99 924.13
  L 517.42 931.58
  L 514.91 932.47
  L 512.72 932.61
  L 510.88 932.11
  L 508.55 930.87
  L 505.66 929.33
  L 451.16 904.20
  L 396.78 878.82
  L 378.63 870.40
  L 290.19 829.84
  L 201.98 789.14
  L 200.99 789.04
  L 200.14 789.56
  L 194.72 796.12
  L 194.50 796.72
  L 194.93 797.18
  L 202.64 801.09
  L 210.46 804.81
  L 337.73 863.35
  L 350.49 869.37
  L 361.42 874.55
  L 437.45 909.89
  L 513.22 945.73
  L 513.99 945.91
  L 514.69 945.74
  L 562.28 923.37
  Z
  M 343.17 880.30
  L 344.59 881.02
  L 345.71 881.15
  L 348.37 883.76
  L 350.92 885.42
  L 362.37 890.85
  L 384.75 901.27
  L 407.23 911.46
  L 412.34 913.46
  L 419.45 916.35
  L 428.32 920.64
  L 452.88 931.68
  L 485.10 947.05
  L 513.05 960.42
  L 514.17 960.67
  L 515.30 960.42
  L 568.59 935.59
  L 569.00 935.33
  L 569.32 934.97
  L 569.51 934.74
  L 570.27 934.25
  L 570.89 934.37
  L 570.89 934.37
  L 572.08 934.10
  L 573.30 933.20
  L 575.50 932.41
  L 577.66 931.34
  L 582.51 928.99
  L 589.29 926.44
  L 589.93 926.21
  L 591.21 925.60
  L 592.69 924.56
  L 594.69 923.23
  L 601.65 920.55
  L 608.28 917.27
  L 608.28 917.27
  L 610.81 915.80
  L 616.61 914.35
  L 619.79 913.28
  L 624.72 911.31
  L 629.22 909.54
  L 632.23 907.86
  L 634.53 906.23
  L 637.97 903.85
  L 640.80 902.35
  L 646.51 899.91
  L 657.35 895.14
  L 665.66 890.80
  L 668.74 888.96
  L 674.73 886.56
  L 680.63 883.97
  L 686.42 881.20
  L 692.12 878.25
  L 693.47 877.51
  L 695.03 876.86
  L 696.61 876.28
  L 831.83 813.33
  L 835.75 811.48
  L 845.11 806.90
  L 847.44 805.44
  L 849.23 803.68
  L 849.42 803.23
  L 849.37 802.75
  L 849.07 802.36
  L 848.63 802.17
  L 848.14 802.23
  L 826.06 811.63
  L 804.20 821.36
  L 753.60 844.56
  L 703.13 868.01
  L 692.99 872.76
  L 691.05 873.47
  L 688.45 874.08
  L 685.07 874.95
  L 676.07 878.56
  L 668.97 882.00
  L 664.90 884.33
  L 660.10 887.10
  L 655.19 889.65
  L 647.90 892.95
  L 640.39 895.81
  L 638.12 896.78
  L 635.54 898.22
  L 632.67 900.15
  L 629.49 902.55
  L 627.65 902.97
  L 625.94 903.64
  L 623.74 905.03
  L 617.58 907.56
  L 611.15 909.55
  L 608.78 910.27
  L 604.71 911.96
  L 599.58 914.75
  L 596.90 916.11
  L 593.18 917.71
  L 586.76 920.79
  L 582.16 922.81
  L 576.32 925.39
  L 574.17 926.63
  L 572.26 927.98
  L 569.71 929.76
  L 567.12 931.13
  L 554.29 936.92
  L 516.95 954.26
  L 515.96 954.79
  L 514.78 955.39
  L 513.83 955.59
  L 513.10 955.50
  L 512.27 955.18
  L 501.48 949.65
  L 491.50 944.76
  L 474.08 936.40
  L 446.31 923.17
  L 443.76 921.48
  L 442.26 920.38
  L 441.01 919.69
  L 430.33 914.82
  L 415.65 908.22
  L 393.08 898.37
  L 371.58 888.48
  L 350.26 878.16
  L 349.31 877.88
  L 348.04 878.04
  L 347.43 877.68
  L 335.55 871.69
  L 327.05 867.64
  L 271.86 842.47
  L 216.77 817.07
  L 197.86 808.55
  L 178.39 800.25
  L 177.38 800.12
  L 176.44 800.52
  L 175.84 801.16
  L 175.64 801.79
  L 175.64 801.79
  L 176.01 802.62
  L 177.09 803.43
  L 187.67 808.87
  L 203.00 815.81
  L 211.14 819.45
  L 343.17 880.30
  Z"
/>
<g stroke-width="2.00" fill="none" stroke-linecap="butt">
<path stroke="#4d4a47" stroke-opacity="0.996" vector-effect="non-scaling-stroke" d="
  M 496.30 522.73
  L 502.87 523.55
  L 506.13 523.65
  L 509.37 523.55
  L 518.18 523.03
  L 520.99 523.04
  L 524.96 523.02
  L 527.94 522.79
  L 530.56 522.29
  L 533.00 521.48
  L 533.62 521.22"
/>
<path stroke="#4d4a47" stroke-opacity="0.996" vector-effect="non-scaling-stroke" d="
  M 528.32 520.26
  L 515.68 520.34"
/>
<path stroke="#4d4a47" stroke-opacity="0.996" vector-effect="non-scaling-stroke" d="
  M 504.98 521.02
  L 503.87 521.37
  L 502.61 521.51
  L 499.62 521.20"
/>
<path stroke="#4d4a47" stroke-opacity="0.996" vector-effect="non-scaling-stroke" d="
  M 554.54 861.09
  L 570.56 854.40
  L 586.23 847.09
  L 588.45 845.77
  L 590.22 844.20"
/>
<path stroke="#4d4a47" stroke-opacity="0.996" vector-effect="non-scaling-stroke" d="
  M 575.02 839.79
  L 568.38 842.27
  L 561.84 844.99
  L 561.84 844.99
  L 561.84 844.99
  L 555.85 847.73
  L 549.94 850.67"
/>
<path stroke="#4d4a47" stroke-opacity="0.996" vector-effect="non-scaling-stroke" d="
  M 569.77 892.96
  L 573.79 891.15"
/>
<path stroke="#4d4a47" stroke-opacity="0.996" vector-effect="non-scaling-stroke" d="
  M 562.28 923.37
  L 569.34 920.63
  L 575.99 917.26"
/>
<path stroke="#4d4a47" stroke-opacity="0.996" vector-effect="non-scaling-stroke" d="
  M 609.27 902.20
  L 610.84 901.74
  L 612.29 901.06
  L 613.74 900.03"
/>
<path stroke="#4d4a47" stroke-opacity="0.996" vector-effect="non-scaling-stroke" d="
  M 616.48 898.78
  L 618.22 898.24
  L 619.58 897.32
  L 619.96 896.91"
/>
<path stroke="#4d4a47" stroke-opacity="0.996" vector-effect="non-scaling-stroke" d="
  M 637.50 888.81
  L 639.90 888.20
  L 639.90 888.20
  L 641.89 887.28
  L 643.74 886.00"
/>
<path stroke="#4d4a47" stroke-opacity="0.996" vector-effect="non-scaling-stroke" d="
  M 639.00 876.65
  L 631.99 879.43
  L 628.56 881.12
  L 625.20 882.99"
/>
<path stroke="#4d4a47" stroke-opacity="0.996" vector-effect="non-scaling-stroke" d="
  M 611.50 889.17
  L 608.15 890.19
  L 604.22 891.78
  L 586.30 900.22
  L 568.49 908.98"
/>
<path stroke="#4d4a47" stroke-opacity="0.996" vector-effect="non-scaling-stroke" d="
  M 343.17 880.30
  L 344.59 881.02
  L 345.71 881.15"
/>
<path stroke="#4d4a47" stroke-opacity="0.996" vector-effect="non-scaling-stroke" d="
  M 570.27 934.25
  L 570.89 934.37
  L 570.89 934.37
  L 572.08 934.10
  L 573.30 933.20"
/>
<path stroke="#4d4a47" stroke-opacity="0.996" vector-effect="non-scaling-stroke" d="
  M 594.69 923.23
  L 601.65 920.55
  L 608.28 917.27
  L 608.28 917.27
  L 610.81 915.80"
/>
<path stroke="#4d4a47" stroke-opacity="0.996" vector-effect="non-scaling-stroke" d="
  M 668.74 888.96
  L 674.73 886.56
  L 680.63 883.97
  L 686.42 881.20
  L 692.12 878.25
  L 693.47 877.51"
/>
<path stroke="#4d4a47" stroke-opacity="0.996" vector-effect="non-scaling-stroke" d="
  M 629.49 902.55
  L 627.65 902.97
  L 625.94 903.64
  L 623.74 905.03"
/>
<path stroke="#4d4a47" stroke-opacity="0.996" vector-effect="non-scaling-stroke" d="
  M 348.04 878.04
  L 347.43 877.68"
/>
</g>
<rect fill="#000000" x="-15.03" y="-5.35" transform="translate(341.26,179.06) rotate(36.3)" width="30.06" height="10.70" rx="5.18"/>
<rect fill="#000000" x="-14.62" y="-5.29" transform="translate(684.20,179.02) rotate(-37.2)" width="29.24" height="10.58" rx="5.13"/>
<ellipse fill="#000000" cx="0.00" cy="0.00" transform="translate(396.53,175.31) rotate(66.6)" rx="5.64" ry="5.38"/>
<circle fill="#000000" cx="629.54" cy="175.29" r="5.27"/>
<rect fill="#000000" x="-35.66" y="-5.51" transform="translate(306.06,203.42) rotate(30.0)" width="71.32" height="11.02" rx="5.43"/>
<rect fill="#000000" x="-34.86" y="-5.35" transform="translate(718.56,203.54) rotate(-31.0)" width="69.72" height="10.70" rx="5.27"/>
<rect fill="#000000" x="-45.55" y="-7.01" transform="translate(281.03,241.17) rotate(17.7)" width="91.10" height="14.02" rx="6.89"/>
<rect fill="#000000" x="-45.54" y="-7.10" transform="translate(744.39,241.22) rotate(-17.4)" width="91.08" height="14.20" rx="6.96"/>
<circle fill="#000000" cx="344.10" cy="261.55" r="5.45"/>
<circle fill="#000000" cx="680.53" cy="261.46" r="5.34"/>
<rect fill="#000000" x="-37.32" y="-5.28" transform="translate(278.43,286.40) rotate(7.9)" width="74.64" height="10.56" rx="4.93"/>
<rect fill="#000000" x="-37.70" y="-5.28" transform="translate(746.46,286.45) rotate(-7.5)" width="75.40" height="10.56" rx="5.04"/>
<path fill="#000000" d="
  M 551.71 331.92
  L 552.48 328.85
  L 553.78 323.90
  L 555.07 320.52
  L 556.69 317.72
  L 558.72 315.44
  L 560.69 313.97
  L 563.65 312.58
  L 566.69 311.97
  L 568.19 311.97
  L 569.66 312.17
  L 571.08 312.57
  L 572.42 313.19
  L 573.63 313.97
  L 574.74 314.95
  L 576.49 317.30
  L 577.29 319.08
  L 577.73 320.90
  L 577.71 323.70
  L 576.90 326.60
  L 574.98 330.56
  L 572.70 333.93
  L 570.07 336.71
  L 567.09 338.90
  L 567.09 338.90
  L 565.22 339.88
  L 563.23 340.67
  L 561.13 341.26
  L 558.91 341.66
  L 554.13 341.88
  L 548.88 341.32
  L 548.63 341.25
  L 548.18 340.94
  L 547.91 340.47
  L 547.87 339.93
  L 548.07 339.42
  L 549.99 336.26
  L 551.27 333.34
  L 551.71 331.92
  Z"
/>
<path fill="#000000" d="
  M 475.33 333.95
  L 478.40 339.28
  L 478.50 339.72
  L 478.16 340.04
  L 474.40 341.37
  L 470.74 342.03
  L 467.08 342.02
  L 463.61 341.36
  L 461.35 340.55
  L 459.21 339.46
  L 457.20 338.10
  L 455.34 336.48
  L 453.64 334.62
  L 452.11 332.53
  L 450.76 330.22
  L 449.62 327.70
  L 448.70 324.66
  L 448.43 321.76
  L 448.82 319.20
  L 449.86 316.87
  L 450.71 315.74
  L 451.72 314.78
  L 454.13 313.32
  L 457.02 312.52
  L 460.14 312.46
  L 463.18 313.14
  L 465.91 314.46
  L 468.37 316.43
  L 470.34 318.92
  L 471.78 322.05
  L 473.16 327.14
  L 474.25 331.29
  L 475.33 333.95
  Z"
/>
<path fill="#000000" d="
  M 507.25 338.68
  L 507.33 339.39
  L 506.93 339.99
  L 504.81 341.31
  L 502.69 342.25
  L 500.57 342.81
  L 498.45 342.99
  L 498.45 342.99
  L 498.45 342.99
  L 498.45 342.99
  L 498.45 342.99
  L 496.35 342.79
  L 494.24 342.22
  L 492.14 341.27
  L 490.04 339.95
  L 489.72 339.45
  L 489.83 338.87
  L 491.25 336.28
  L 492.26 333.57
  L 492.26 333.57
  L 492.26 333.57
  L 492.75 331.52
  L 493.02 329.41
  L 493.08 327.24
  L 492.92 325.00
  L 492.88 323.93
  L 493.09 322.43
  L 493.62 320.94
  L 494.35 319.80
  L 495.26 319.02
  L 496.87 318.43
  L 498.62 318.49
  L 500.42 319.16
  L 501.97 320.37
  L 502.41 321.25
  L 502.95 323.42
  L 503.56 326.35
  L 503.91 329.29
  L 504.64 332.33
  L 505.76 335.46
  L 507.25 338.68
  Z"
/>
<path fill="#000000" d="
  M 519.16 338.62
  L 520.49 336.54
  L 521.53 334.40
  L 522.25 332.30
  L 522.75 330.08
  L 523.05 327.60
  L 523.14 324.92
  L 523.31 322.50
  L 523.84 320.88
  L 524.50 320.03
  L 525.36 319.33
  L 526.37 318.80
  L 527.47 318.47
  L 528.59 318.34
  L 529.70 318.45
  L 530.65 318.77
  L 531.49 319.31
  L 532.15 320.04
  L 532.78 321.71
  L 532.94 324.21
  L 532.98 327.09
  L 533.25 329.89
  L 533.76 332.60
  L 534.51 335.24
  L 534.51 335.24
  L 534.51 335.24
  L 536.07 339.03
  L 536.32 339.79
  L 536.26 340.43
  L 536.26 340.43
  L 536.26 340.43
  L 535.88 340.96
  L 535.19 341.37
  L 533.12 342.11
  L 531.07 342.58
  L 529.04 342.79
  L 527.04 342.74
  L 527.04 342.74
  L 527.04 342.74
  L 527.04 342.74
  L 525.10 342.43
  L 523.19 341.87
  L 521.30 341.06
  L 519.43 340.00
  L 519.00 339.38
  L 519.14 338.64
  L 519.16 338.62
  Z"
/>
<ellipse fill="#000000" cx="0.00" cy="0.00" transform="translate(337.28,327.52) rotate(112.4)" rx="5.47" ry="5.35"/>
<circle fill="#000000" cx="687.92" cy="327.45" r="5.56"/>
<rect fill="#000000" x="222.72" y="323.72" width="92.48" height="14.50" rx="7.12"/>
<rect fill="#000000" x="-46.69" y="-7.29" transform="translate(756.03,330.96) rotate(0.1)" width="93.38" height="14.58" rx="7.12"/>
<rect fill="#000000" x="-37.47" y="-5.16" transform="translate(739.89,376.80) rotate(13.9)" width="74.94" height="10.32" rx="5.06"/>
<rect fill="#000000" x="-37.21" y="-5.15" transform="translate(285.53,376.41) rotate(-13.3)" width="74.42" height="10.30" rx="5.05"/>
<ellipse fill="#000000" cx="0.00" cy="0.00" transform="translate(353.47,391.40) rotate(47.2)" rx="5.55" ry="5.36"/>
<circle fill="#000000" cx="671.60" cy="391.64" r="5.57"/>
<rect fill="#000000" x="-47.99" y="-7.42" transform="translate(735.40,419.00) rotate(25.4)" width="95.98" height="14.84" rx="7.32"/>
<rect fill="#000000" x="-48.09" y="-7.31" transform="translate(289.66,418.83) rotate(-24.9)" width="96.18" height="14.62" rx="7.19"/>
<path fill="#000000" d="
  M 526.63 445.88
  L 527.93 444.46
  L 528.99 442.98
  L 529.82 441.42
  L 530.42 439.80
  L 530.42 439.80
  L 530.42 439.80
  L 530.90 436.78
  L 530.66 433.54
  L 529.90 430.22
  L 528.86 427.20
  L 527.55 424.48
  L 525.96 422.05
  L 525.41 421.18
  L 525.36 420.71
  L 525.83 420.63
  L 526.81 420.96
  L 529.16 422.14
  L 531.31 423.57
  L 533.24 425.23
  L 534.93 427.10
  L 536.37 429.16
  L 537.54 431.37
  L 538.43 433.72
  L 539.01 436.17
  L 539.29 439.09
  L 539.12 442.08
  L 538.52 444.85
  L 537.40 447.70
  L 535.88 450.37
  L 533.88 453.00
  L 531.45 455.50
  L 528.76 457.69
  L 525.81 459.58
  L 522.76 461.06
  L 520.48 461.89
  L 518.20 462.49
  L 515.91 462.88
  L 513.61 463.05
  L 513.61 463.05
  L 510.28 462.91
  L 506.94 462.32
  L 503.38 461.13
  L 499.87 459.32
  L 496.58 456.98
  L 493.80 454.32
  L 491.58 451.42
  L 490.01 448.42
  L 489.08 445.26
  L 488.84 442.13
  L 488.91 441.08
  L 489.02 440.77
  L 489.63 440.45
  L 490.23 440.80
  L 492.74 444.46
  L 495.67 447.52
  L 498.90 449.89
  L 502.48 451.60
  L 505.02 452.35
  L 507.69 452.78
  L 510.38 452.88
  L 513.17 452.66
  L 515.43 452.24
  L 517.62 451.60
  L 517.62 451.60
  L 520.02 450.60
  L 522.33 449.32
  L 524.53 447.74
  L 526.63 445.88
  Z"
/>
<path fill="#000000" d="
  M 343.56 438.05
  L 345.06 437.10
  L 346.65 436.53
  L 348.89 436.35
  L 350.38 436.58
  L 351.58 437.03
  L 352.57 437.73
  L 353.24 438.61
  L 353.57 439.43
  L 353.70 440.31
  L 353.37 442.17
  L 352.37 443.91
  L 350.74 445.46
  L 300.45 481.51
  L 298.06 482.89
  L 296.07 483.36
  L 294.98 483.24
  L 293.94 482.90
  L 292.98 482.36
  L 292.13 481.66
  L 291.41 480.77
  L 290.88 479.76
  L 290.60 478.77
  L 290.54 477.71
  L 290.82 476.33
  L 291.35 475.22
  L 292.13 474.14
  L 294.40 472.08
  L 313.78 458.38
  L 313.78 458.38
  L 327.34 449.11
  L 341.02 440.01
  L 343.56 438.05
  Z"
/>
<rect fill="#000000" x="-37.10" y="-5.46" transform="translate(703.33,459.81) rotate(35.8)" width="74.20" height="10.92" rx="5.38"/>
<circle fill="#000000" cx="397.31" cy="454.53" r="5.54"/>
<circle fill="#000000" cx="628.10" cy="454.73" r="5.58"/>
<rect fill="#000000" x="-7.64" y="-38.55" transform="translate(360.37,498.27) rotate(43.2)" width="15.28" height="77.10" rx="7.50"/>
<rect fill="#000000" x="-7.68" y="-37.92" transform="translate(664.96,497.87) rotate(-43.2)" width="15.36" height="75.84" rx="7.55"/>
<path fill="#000000" d="
  M 504.98 521.02
  L 503.87 521.37
  L 502.61 521.51
  L 499.62 521.20
  L 497.00 520.65
  L 493.84 519.98
  L 492.21 519.19
  L 492.08 518.97
  L 492.32 518.91
  L 506.87 519.06
  L 508.02 519.32
  L 508.24 519.44
  L 508.60 519.83
  L 508.08 519.95
  L 505.85 520.10
  L 505.23 520.32
  L 504.95 520.65
  L 504.98 521.02
  Z"
/>
<path fill="#9b948f" fill-opacity="0.988" d="
  M 528.32 520.26
  L 531.04 521.07
  L 533.62 521.22
  L 533.00 521.48
  L 530.56 522.29
  L 527.94 522.79
  L 524.96 523.02
  L 520.99 523.04
  L 518.18 523.03
  L 509.37 523.55
  L 506.13 523.65
  L 502.87 523.55
  L 496.30 522.73
  L 499.62 521.20
  L 502.61 521.51
  L 503.87 521.37
  L 504.98 521.02
  L 507.82 521.17
  L 510.56 521.11
  L 513.17 520.83
  L 515.68 520.34
  L 528.32 520.26
  Z"
/>
<path fill="#000000" d="
  M 409.16 539.48
  L 410.44 539.00
  L 411.88 538.21
  L 412.96 537.39
  L 413.53 536.67
  L 414.20 535.92
  L 414.98 535.84
  L 423.02 539.36
  L 423.37 539.72
  L 423.38 540.22
  L 422.47 543.65
  L 422.29 545.66
  L 422.38 547.71
  L 422.26 548.02
  L 421.94 548.12
  L 421.84 548.08
  L 408.90 541.39
  L 407.96 540.78
  L 407.69 540.26
  L 407.69 540.26
  L 408.09 539.82
  L 409.16 539.48
  Z"
/>
<path fill="#000000" d="
  M 715.67 584.02
  L 743.88 596.41
  L 771.79 609.09
  L 772.07 609.29
  L 772.30 609.68
  L 772.33 610.14
  L 772.13 610.55
  L 771.77 610.83
  L 762.12 614.98
  L 761.59 615.09
  L 761.09 614.97
  L 733.48 602.58
  L 619.82 552.87
  L 610.54 548.49
  L 601.66 543.68
  L 601.02 542.87
  L 601.09 541.84
  L 603.73 536.37
  L 604.33 535.83
  L 605.13 535.86
  L 715.67 584.02
  Z"
/>
<path fill="#000000" d="
  M 395.98 546.62
  L 422.56 558.44
  L 423.07 558.90
  L 423.22 559.57
  L 422.49 567.11
  L 422.32 567.61
  L 421.94 567.97
  L 421.43 568.12
  L 420.91 568.02
  L 386.38 552.34
  L 385.90 551.93
  L 385.73 551.31
  L 385.92 550.70
  L 386.41 550.29
  L 395.09 546.61
  L 395.31 546.54
  L 395.98 546.62
  Z"
/>
<path fill="#000000" d="
  M 604.31 556.83
  L 747.79 620.02
  L 748.26 620.38
  L 748.50 620.92
  L 748.38 621.71
  L 747.79 622.26
  L 738.66 626.27
  L 738.17 626.38
  L 737.68 626.27
  L 603.49 566.36
  L 603.16 566.15
  L 602.76 565.28
  L 602.60 557.98
  L 602.69 557.48
  L 602.98 557.07
  L 602.98 557.07
  L 603.61 556.75
  L 604.31 556.83
  Z"
/>
<path fill="#000000" d="
  M 407.13 582.94
  L 363.01 562.78
  L 362.61 562.25
  L 362.69 561.81
  L 363.02 561.50
  L 372.55 557.33
  L 372.79 557.28
  L 373.11 557.33
  L 417.87 577.17
  L 418.27 577.65
  L 418.22 578.12
  L 417.87 578.45
  L 407.71 582.94
  L 407.49 583.00
  L 407.13 582.94
  Z"
/>
<path fill="#000000" d="
  M 350.91 568.03
  L 394.32 587.48
  L 394.83 587.92
  L 395.03 588.57
  L 394.84 589.22
  L 394.34 589.66
  L 385.65 593.75
  L 385.24 593.86
  L 384.64 593.76
  L 341.26 573.87
  L 340.75 573.42
  L 340.56 572.76
  L 340.77 572.10
  L 341.29 571.67
  L 349.95 568.02
  L 350.32 567.93
  L 350.91 568.03
  Z"
/>
<path fill="#000000" d="
  M 359.62 604.15
  L 314.35 582.74
  L 314.06 582.36
  L 314.11 582.04
  L 314.34 581.82
  L 324.40 576.96
  L 324.58 576.92
  L 324.84 576.96
  L 371.09 598.37
  L 371.38 598.83
  L 371.08 599.30
  L 360.04 604.16
  L 359.80 604.20
  L 359.62 604.15
  Z"
/>
<path fill="#000000" d="
  M 300.53 586.96
  L 345.51 608.41
  L 345.70 608.65
  L 345.50 609.05
  L 334.93 613.72
  L 334.84 613.74
  L 334.64 613.71
  L 288.50 592.09
  L 288.30 591.83
  L 288.52 591.45
  L 300.25 586.95
  L 300.53 586.96
  Z"
/>
<path fill="#000000" d="
  M 235.33 607.43
  L 244.10 605.18
  L 253.56 602.25
  L 264.43 598.42
  L 278.35 593.13
  L 278.89 593.06
  L 279.32 593.20
  L 291.67 599.84
  L 308.97 608.27
  L 326.65 616.90
  L 327.02 617.47
  L 326.72 618.07
  L 326.72 618.07
  L 326.39 618.18
  L 325.30 618.38
  L 324.04 618.87
  L 309.35 625.50
  L 293.90 631.85
  L 292.72 632.45
  L 290.82 633.34
  L 289.30 633.43
  L 288.74 633.24
  L 235.19 608.82
  L 234.92 608.61
  L 234.80 607.91
  L 235.33 607.43
  Z"
/>
<path fill="#000000" d="
  M 722.93 632.41
  L 712.64 636.57
  L 712.24 636.65
  L 711.78 636.54
  L 703.98 632.71
  L 690.90 626.46
  L 668.99 616.70
  L 647.17 606.75
  L 645.12 606.17
  L 643.70 605.84
  L 643.37 605.61
  L 643.23 605.24
  L 642.64 595.41
  L 642.72 595.15
  L 642.97 595.17
  L 646.23 596.54
  L 668.04 605.88
  L 689.73 615.51
  L 689.73 615.51
  L 717.64 628.43
  L 719.87 629.65
  L 722.73 631.51
  L 723.00 631.69
  L 723.18 632.01
  L 723.03 632.35
  L 722.93 632.41
  Z"
/>
<path fill="#000000" d="
  M 499.44 609.88
  L 498.24 609.49
  L 496.85 608.73
  L 495.49 607.62
  L 494.20 606.21
  L 492.64 604.14
  L 491.46 602.54
  L 491.30 602.18
  L 491.31 601.79
  L 491.54 601.42
  L 491.89 601.70
  L 493.61 604.06
  L 495.57 606.17
  L 495.57 606.17
  L 497.53 607.84
  L 499.68 609.30
  L 499.81 609.45
  L 499.76 609.78
  L 499.44 609.88
  Z"
/>
<path fill="#000000" d="
  M 471.26 656.39
  L 379.86 615.64
  L 379.37 615.26
  L 379.08 614.71
  L 379.15 613.83
  L 379.74 613.16
  L 386.81 609.12
  L 387.32 608.95
  L 388.06 609.06
  L 480.60 650.16
  L 481.20 650.67
  L 481.42 651.42
  L 481.20 652.18
  L 480.60 652.70
  L 472.40 656.38
  L 471.83 656.51
  L 471.26 656.39
  Z"
/>
<path fill="#000000" d="
  M 688.17 646.28
  L 632.17 621.10
  L 631.68 620.57
  L 631.72 619.86
  L 631.90 619.61
  L 637.58 613.94
  L 637.85 613.75
  L 638.61 613.75
  L 698.07 640.43
  L 698.56 640.95
  L 698.55 641.62
  L 698.08 642.10
  L 688.93 646.28
  L 688.17 646.28
  Z"
/>
<path fill="#000000" d="
  M 365.71 619.54
  L 459.88 661.72
  L 460.23 662.00
  L 460.41 662.40
  L 460.41 662.40
  L 460.32 663.00
  L 459.88 663.40
  L 450.93 667.32
  L 450.19 667.31
  L 356.21 625.17
  L 355.69 624.52
  L 355.77 623.91
  L 356.21 623.49
  L 364.95 619.54
  L 365.71 619.54
  Z"
/>
<path fill="#000000" d="
  M 443.24 671.28
  L 440.91 672.37
  L 424.04 680.50
  L 417.80 683.81
  L 412.20 687.05
  L 411.75 687.20
  L 411.29 687.11
  L 384.37 675.53
  L 357.54 663.73
  L 341.27 656.45
  L 332.36 652.32
  L 318.78 646.04
  L 309.05 641.81
  L 308.76 641.46
  L 308.90 641.03
  L 309.07 640.93
  L 320.82 636.72
  L 332.43 632.16
  L 332.43 632.16
  L 347.11 625.84
  L 347.53 625.75
  L 347.93 625.87
  L 360.18 632.28
  L 371.56 637.63
  L 407.54 653.61
  L 443.24 669.80
  L 443.47 669.96
  L 443.70 670.68
  L 443.24 671.28
  Z"
/>
<path fill="#000000" d="
  M 664.56 656.74
  L 611.61 631.96
  L 611.31 631.70
  L 611.19 631.32
  L 611.30 630.93
  L 611.60 630.66
  L 620.81 626.26
  L 621.11 626.19
  L 621.43 626.25
  L 674.37 650.87
  L 674.67 651.13
  L 674.79 651.51
  L 674.68 651.90
  L 674.39 652.17
  L 665.18 656.74
  L 664.99 656.80
  L 664.56 656.74
  Z"
/>
<path fill="#000000" d="
  M 598.67 636.18
  L 650.20 660.73
  L 650.50 661.20
  L 650.22 661.68
  L 641.22 666.54
  L 640.74 666.56
  L 585.14 640.21
  L 584.84 639.67
  L 585.24 639.21
  L 598.32 636.14
  L 598.67 636.18
  Z"
/>
<path fill="#000000" d="
  M 616.79 676.48
  L 559.45 648.22
  L 559.02 647.82
  L 558.87 647.25
  L 559.06 646.70
  L 559.53 646.34
  L 568.49 642.81
  L 569.32 642.84
  L 627.00 670.81
  L 627.43 671.21
  L 627.58 671.78
  L 627.58 671.78
  L 627.39 672.32
  L 626.94 672.69
  L 617.64 676.51
  L 616.79 676.48
  Z"
/>
<path fill="#000000" d="
  M 544.29 650.65
  L 604.41 680.72
  L 604.70 680.99
  L 604.81 681.38
  L 604.68 681.77
  L 604.37 682.02
  L 594.98 686.10
  L 594.77 686.15
  L 594.37 686.08
  L 534.42 656.09
  L 534.12 655.82
  L 534.02 655.43
  L 534.14 655.05
  L 534.44 654.79
  L 543.67 650.64
  L 544.29 650.65
  Z"
/>
<path fill="#000000" d="
  M 519.48 659.12
  L 582.31 690.10
  L 582.71 690.62
  L 582.64 691.11
  L 582.28 691.45
  L 573.29 695.52
  L 572.65 695.51
  L 510.23 664.96
  L 509.93 664.69
  L 509.81 664.30
  L 509.92 663.90
  L 510.21 663.62
  L 518.80 659.13
  L 519.48 659.12
  Z"
/>
<path fill="#000000" d="
  M 496.82 669.02
  L 559.68 699.32
  L 560.08 699.64
  L 560.29 700.09
  L 560.29 700.09
  L 560.20 700.83
  L 559.68 701.36
  L 551.03 705.49
  L 550.56 705.60
  L 550.04 705.49
  L 487.97 674.86
  L 487.57 674.52
  L 487.36 674.04
  L 487.47 673.33
  L 487.98 672.83
  L 495.84 669.02
  L 496.33 668.91
  L 496.82 669.02
  Z"
/>
<path fill="#000000" d="
  M 526.23 714.87
  L 466.78 685.74
  L 466.35 685.39
  L 466.12 684.89
  L 466.23 684.09
  L 466.82 683.53
  L 475.14 679.79
  L 475.66 679.69
  L 476.17 679.81
  L 536.47 709.04
  L 536.94 709.44
  L 537.16 710.02
  L 536.98 710.77
  L 536.39 711.27
  L 527.21 714.91
  L 526.71 715.00
  L 526.23 714.87
  Z"
/>
<path fill="#9b948f" fill-opacity="0.988" d="
  M 174.73 820.81
  L 171.49 819.10
  L 172.30 819.28
  L 172.30 819.28
  L 173.82 819.81
  L 175.28 820.60
  L 175.42 820.77
  L 175.23 820.87
  L 174.73 820.81
  Z"
/>
<path fill="#9b948f" fill-opacity="0.988" d="
  M 251.82 856.11
  L 241.93 852.22
  L 232.20 847.98
  L 232.20 847.98
  L 222.53 843.33
  L 213.02 838.33
  L 209.63 836.66
  L 204.84 834.72
  L 200.24 832.85
  L 197.04 831.29
  L 186.92 826.13
  L 176.43 821.54
  L 181.36 822.95
  L 185.66 824.81
  L 193.36 828.63
  L 204.12 833.61
  L 210.85 836.72
  L 251.82 856.11
  Z"
/>
<path fill="#9b948f" fill-opacity="0.988" d="
  M 575.02 839.79
  L 549.94 850.67
  L 555.85 847.73
  L 561.84 844.99
  L 561.84 844.99
  L 561.84 844.99
  L 568.38 842.27
  L 575.02 839.79
  Z"
/>
<path fill="#9b948f" fill-opacity="0.988" d="
  M 590.22 844.20
  L 588.45 845.77
  L 586.23 847.09
  L 570.56 854.40
  L 554.54 861.09
  L 561.02 857.38
  L 566.10 855.07
  L 572.22 852.69
  L 578.29 850.09
  L 584.28 847.26
  L 590.22 844.20
  Z"
/>
<path fill="#9b948f" fill-opacity="0.988" d="
  M 797.01 847.30
  L 791.36 850.30
  L 785.62 853.10
  L 785.62 853.10
  L 778.58 856.21
  L 771.40 859.03
  L 782.07 853.72
  L 782.07 853.72
  L 789.48 850.39
  L 797.01 847.30
  Z"
/>
<path fill="#9b948f" fill-opacity="0.988" d="
  M 258.47 859.45
  L 277.20 867.57
  L 458.72 952.25
  L 461.68 953.75
  L 463.69 955.05
  L 425.46 938.14
  L 400.88 926.93
  L 391.93 922.59
  L 385.22 919.09
  L 371.81 912.03
  L 366.50 909.52
  L 362.11 907.68
  L 350.64 903.18
  L 347.13 901.75
  L 336.36 897.23
  L 328.92 893.60
  L 325.55 891.72
  L 321.93 889.77
  L 318.05 887.96
  L 316.25 887.16
  L 310.47 884.27
  L 309.93 884.05
  L 309.40 883.97
  L 308.88 883.89
  L 308.46 883.72
  L 308.21 883.60
  L 291.65 875.61
  L 281.84 870.95
  L 275.40 867.98
  L 265.41 863.29
  L 258.47 859.45
  Z"
/>
<path fill="#9b948f" fill-opacity="0.988" d="
  M 766.27 861.49
  L 756.54 865.99
  L 766.27 861.49
  Z"
/>
<path fill="#9b948f" fill-opacity="0.988" d="
  M 639.00 876.65
  L 625.20 882.99
  L 628.56 881.12
  L 631.99 879.43
  L 631.99 879.43
  L 639.00 876.65
  Z"
/>
<path fill="#9b948f" fill-opacity="0.988" d="
  M 734.00 876.56
  L 723.23 882.03
  L 713.29 886.64
  L 703.19 890.91
  L 713.96 885.44
  L 713.96 885.44
  L 723.90 880.83
  L 734.00 876.56
  Z"
/>
<path fill="#9b948f" fill-opacity="0.988" d="
  M 693.47 877.51
  L 692.12 878.25
  L 692.12 878.25
  L 686.42 881.20
  L 680.63 883.97
  L 674.73 886.56
  L 668.74 888.96
  L 672.13 886.93
  L 675.31 885.33
  L 693.47 877.51
  Z"
/>
<path fill="#9b948f" fill-opacity="0.988" d="
  M 347.43 877.68
  L 348.04 878.04
  L 345.71 881.15
  L 344.59 881.02
  L 343.17 880.30
  L 347.43 877.68
  Z"
/>
<path fill="#9b948f" fill-opacity="0.988" d="
  M 643.74 886.00
  L 641.89 887.28
  L 639.90 888.20
  L 639.90 888.20
  L 637.50 888.81
  L 643.74 886.00
  Z"
/>
<path fill="#9b948f" fill-opacity="0.988" d="
  M 611.50 889.17
  L 600.78 894.50
  L 589.92 899.49
  L 583.78 902.32
  L 574.93 906.38
  L 568.49 908.98
  L 586.30 900.22
  L 604.22 891.78
  L 608.15 890.19
  L 611.50 889.17
  Z"
/>
<path fill="#9b948f" fill-opacity="0.988" d="
  M 573.79 891.15
  L 569.77 892.96
  L 573.79 891.15
  Z"
/>
<path fill="#9b948f" fill-opacity="0.988" d="
  M 696.02 894.20
  L 694.19 895.47
  L 692.08 896.68
  L 686.19 899.31
  L 682.46 900.92
  L 678.63 902.73
  L 678.63 902.73
  L 673.09 905.16
  L 667.45 907.38
  L 681.54 900.46
  L 696.02 894.20
  Z"
/>
<path fill="#9b948f" fill-opacity="0.988" d="
  M 619.96 896.91
  L 619.58 897.32
  L 619.58 897.32
  L 618.22 898.24
  L 616.48 898.78
  L 619.96 896.91
  Z"
/>
<path fill="#9b948f" fill-opacity="0.988" d="
  M 613.74 900.03
  L 612.29 901.06
  L 612.29 901.06
  L 610.84 901.74
  L 609.27 902.20
  L 613.74 900.03
  Z"
/>
<path fill="#9b948f" fill-opacity="0.988" d="
  M 629.49 902.55
  L 623.74 905.03
  L 625.94 903.64
  L 627.65 902.97
  L 629.49 902.55
  Z"
/>
<path fill="#9b948f" fill-opacity="0.988" d="
  M 610.81 915.80
  L 608.28 917.27
  L 601.65 920.55
  L 594.69 923.23
  L 598.62 921.06
  L 602.61 919.09
  L 606.68 917.34
  L 610.81 915.80
  Z"
/>
<path fill="#9b948f" fill-opacity="0.988" d="
  M 649.00 916.33
  L 644.17 919.08
  L 638.50 921.79
  L 632.60 924.06
  L 636.32 921.89
  L 640.12 919.94
  L 644.00 918.20
  L 647.95 916.69
  L 647.95 916.69
  L 649.00 916.33
  Z"
/>
<path fill="#9b948f" fill-opacity="0.988" d="
  M 575.99 917.26
  L 569.34 920.63
  L 562.28 923.37
  L 568.83 920.03
  L 575.99 917.26
  Z"
/>
<path fill="#9b948f" fill-opacity="0.988" d="
  M 626.47 926.54
  L 624.25 927.89
  L 621.40 929.41
  L 618.45 930.75
  L 615.39 931.91
  L 612.24 932.90
  L 626.47 926.54
  Z"
/>
<path fill="#9b948f" fill-opacity="0.988" d="
  M 573.30 933.20
  L 572.08 934.10
  L 570.89 934.37
  L 570.27 934.25
  L 570.00 933.64
  L 570.04 933.21
  L 570.04 933.21
  L 570.04 933.21
  L 570.39 932.95
  L 571.05 932.86
  L 573.30 933.20
  Z"
/>
<path fill="#9b948f" fill-opacity="0.988" d="
  M 562.96 956.13
  L 560.63 957.92
  L 558.77 958.97
  L 548.44 963.53
  L 538.22 968.34
  L 538.22 968.34
  L 524.99 975.01
  L 523.17 975.59
  L 519.73 976.28
  L 562.96 956.13
  Z"
/>
<path fill="#9b948f" fill-opacity="0.988" d="
  M 506.50 975.46
  L 508.19 975.84
  L 509.43 976.66
  L 509.50 976.73
  L 508.93 976.66
  L 508.93 976.66
  L 507.68 976.25
  L 506.50 975.46
  Z"
/>
</svg>
